<svg width="40" height="43" viewBox="0 0 40 43" xmlns="http://www.w3.org/2000/svg">
<path d="M38.2877 2.61611L37.3733 1.70171C35.3921 -0.279478 32.0393 -0.279478 30.0581 1.70171L28.2293 3.53051C25.0289 2.00651 21.3713 1.39692 17.5614 1.85411C8.56979 2.92091 1.40702 10.0837 0.340221 19.0752C-1.03137 31.1148 8.26499 41.3256 19.9997 41.3256C23.3525 41.3256 26.5529 40.5636 29.2961 39.0396L32.6489 42.3924C32.8013 42.5448 32.9537 42.6972 33.1061 42.6972H33.2585H33.4109C33.5633 42.6972 33.5633 42.6972 33.7157 42.6972C33.8681 42.6972 33.8681 42.6972 34.0205 42.6972H34.1729H34.3253C34.4777 42.6972 34.6301 42.5448 34.7825 42.3924C34.9349 42.24 35.0873 42.0876 35.0873 41.9352V41.7828V41.6304V41.478V34.3152C37.9829 30.81 39.6593 26.3904 39.6593 21.666C39.6593 17.8561 38.5925 14.5033 36.7637 11.4553L38.2877 9.93128C40.2689 7.95009 40.2689 4.5973 38.2877 2.61611ZM35.2397 23.0376H36.7637C36.3065 28.0668 33.5633 32.4864 29.6009 35.2296C28.9913 35.6868 28.3817 35.9916 27.7721 36.2964C25.9433 37.2108 23.8097 37.9728 21.6761 38.1252V36.6012C21.6761 35.8392 20.9141 35.0772 20.1521 35.0772C19.3901 35.0772 18.6282 35.8392 18.6282 36.6012V38.1252C10.551 37.3632 4.15021 30.9624 3.38821 22.8852H4.9122C5.6742 22.8852 6.4362 22.1232 6.4362 21.3612C6.4362 20.5992 5.6742 19.8372 4.9122 19.8372H3.23581C3.99781 11.9125 10.3986 5.5117 18.4758 4.7497V6.2737C18.4758 7.03569 19.2377 7.79769 19.9997 7.79769C20.7617 7.79769 21.5237 7.03569 21.5237 6.2737V4.7497C29.6009 5.5117 36.0017 11.9125 36.7637 19.9896H35.2397C34.4777 19.9896 33.7157 20.7516 33.7157 21.5136C33.7157 22.2756 34.4777 23.0376 35.2397 23.0376Z" fill="#FCC822"/>
<path d="M20 7.79769V1.70171C17.1044 1.70171 14.2089 2.31131 11.7705 3.53051L9.94167 1.70171C7.96048 -0.279478 4.60769 -0.279478 2.6265 1.70171L1.7121 2.61611C-0.269088 4.5973 -0.269088 7.95009 1.7121 9.93128L3.0837 11.3029C1.25491 14.3509 0.18811 17.7037 0.18811 21.5136C0.18811 26.238 1.8645 30.6576 4.76009 34.1628V41.3256C4.76009 41.478 4.76009 41.6304 4.76009 41.7828V41.9352C4.76009 41.9352 4.76009 41.9352 4.76009 42.0876C4.76009 42.24 4.91249 42.3924 5.06489 42.5448C5.21729 42.6972 5.36969 42.6972 5.52209 42.8496C5.52209 42.8496 5.52209 42.8496 5.67449 42.8496H5.82689C5.97929 42.8496 6.13169 42.8496 6.28409 42.8496C6.43649 42.8496 6.58889 42.8496 6.74128 42.8496H6.89368C6.89368 42.8496 6.89368 42.8496 7.04608 42.8496C7.19848 42.8496 7.35088 42.6972 7.50328 42.5448L10.8561 39.192C13.5993 40.716 16.7996 41.478 20.1524 41.478V35.382C19.3904 35.382 18.6284 36.144 18.6284 36.906V38.43C16.3424 38.2776 14.3613 37.668 12.5325 36.6012C11.9229 36.2964 11.3133 35.8392 10.7037 35.5344C6.74128 32.7912 3.9981 28.3716 3.5409 23.3424H5.06489C5.82689 23.3424 6.58888 22.5804 6.58888 21.8184C6.58888 21.0564 5.82689 20.2944 5.06489 20.2944H3.2361C3.9981 11.9125 10.3989 5.5117 18.476 4.7497V6.2737C18.476 7.03569 19.238 7.79769 20 7.79769Z" fill="#FCC822"/>
</svg>
