<svg width="424" height="412" viewBox="0 0 424 412" fill="none" xmlns="http://www.w3.org/2000/svg">
<g filter="url(#filter0_d_104_126)">
<rect x="196.179" y="118.305" width="7.51304" height="7.51304" rx="3.75652" fill="url(#paint0_linear_104_126)"/>
</g>
<g filter="url(#filter1_d_104_126)">
<rect x="399.532" y="214.973" width="7.51304" height="7.51304" rx="3.75652" fill="url(#paint1_linear_104_126)"/>
</g>
<g filter="url(#filter2_d_104_126)">
<rect x="319.393" y="291.104" width="7.51304" height="7.51304" rx="3.75652" fill="url(#paint2_linear_104_126)"/>
</g>
<g filter="url(#filter3_d_104_126)">
<rect x="176.645" y="285.094" width="15.527" height="15.527" rx="7.76348" fill="url(#paint3_linear_104_126)"/>
</g>
<g filter="url(#filter4_d_104_126)">
<rect x="314.885" y="262.054" width="9.01565" height="9.01565" rx="4.50783" fill="url(#paint4_linear_104_126)"/>
</g>
<g filter="url(#filter5_d_104_126)">
<rect x="73.4664" y="261.553" width="9.01565" height="9.01565" rx="4.50783" fill="url(#paint5_linear_104_126)"/>
</g>
<g filter="url(#filter6_d_104_126)">
<rect x="267.303" y="302.625" width="4.50783" height="4.50783" rx="2.25391" fill="url(#paint6_linear_104_126)"/>
</g>
<path d="M226.464 46.1302C226.464 46.1302 182.263 47.5603 171.075 67.9382C160.18 87.7841 180.885 125.076 180.885 125.076C180.885 125.076 211.131 174.85 202.793 206.838C188.559 261.446 97.7077 205.028 65.2667 251.204C29.1386 302.629 84.9639 410.924 84.9639 410.924" stroke="#FFC819" stroke-width="0.585029"/>
<path d="M371.212 383.587C371.212 383.587 401.456 351.321 394.957 329.001C388.628 307.263 347.618 295.535 347.618 295.535C347.618 295.535 291.035 281.726 274.312 253.212C245.763 204.533 349.899 180.185 340.186 124.594C329.37 62.6847 213.319 25.5829 213.319 25.5829" stroke="#FCC822" stroke-width="0.877543"/>
<circle cx="276.318" cy="187.424" r="3.00522" fill="url(#paint7_linear_104_126)"/>
<circle cx="291.344" cy="206.298" r="3.00522" fill="url(#paint8_linear_104_126)"/>
<circle cx="300.861" cy="206.299" r="1.50261" fill="url(#paint9_linear_104_126)"/>
<circle cx="298.073" cy="213.027" r="1.50261" transform="rotate(45 298.073 213.027)" fill="url(#paint10_linear_104_126)"/>
<circle cx="291.183" cy="215.815" r="1.50261" transform="rotate(90 291.183 215.815)" fill="url(#paint11_linear_104_126)"/>
<circle cx="284.454" cy="213.027" r="1.50261" transform="rotate(135 284.454 213.027)" fill="url(#paint12_linear_104_126)"/>
<circle cx="281.828" cy="206.299" r="1.50261" fill="url(#paint13_linear_104_126)"/>
<circle cx="284.615" cy="199.569" r="1.50261" transform="rotate(45 284.615 199.569)" fill="url(#paint14_linear_104_126)"/>
<circle cx="291.183" cy="196.782" r="1.50261" transform="rotate(90 291.183 196.782)" fill="url(#paint15_linear_104_126)"/>
<circle cx="297.912" cy="199.569" r="1.50261" transform="rotate(135 297.912 199.569)" fill="url(#paint16_linear_104_126)"/>
<path d="M258.902 284.82L261.521 285.289C264.305 285.785 266.156 288.444 265.66 291.227L265.179 293.914C264.682 296.697 262.023 298.549 259.241 298.052L256.621 297.583C253.839 297.087 251.986 294.427 252.483 291.645L252.964 288.959C253.46 286.175 256.12 284.323 258.902 284.82ZM276.33 212.516C283.136 213.732 287.85 217.094 290.472 222.598C292.559 226.947 293.139 231.718 292.211 236.912C290.658 245.6 285.247 253.159 275.978 259.589C272.745 261.831 270.717 264.75 269.888 268.345C269.582 269.538 269.297 270.873 269.033 272.352C268.536 275.134 265.877 276.987 263.095 276.489L260.475 276.021C257.692 275.523 255.84 272.865 256.336 270.082V270.082C257.754 262.155 260.754 256.616 265.338 253.46C270.292 250.047 273.944 246.287 276.297 242.178C277.649 239.786 278.577 237.179 279.082 234.357C279.601 231.446 279.36 229.047 278.358 227.157C277.267 224.976 275.326 223.82 272.531 223.69C269.922 223.548 267.769 224.988 266.074 228.013C265.988 228.158 265.904 228.308 265.823 228.461C264.621 230.696 261.952 231.702 259.57 230.83L257.234 229.975C254.343 228.917 253.025 225.556 254.438 222.821C255.84 220.103 257.691 217.797 259.989 215.902C262.48 213.853 265.659 212.618 269.524 212.2C271.552 211.962 273.821 212.066 276.33 212.516Z" fill="#AEDBED"/>
<path d="M159.423 295.542L161.598 295.645C163.909 295.755 165.693 297.718 165.582 300.028L165.476 302.26C165.366 304.57 163.404 306.354 161.093 306.245L158.918 306.141C156.607 306.031 154.823 304.069 154.933 301.758L155.039 299.526C155.149 297.216 157.112 295.432 159.423 295.542ZM165.939 235.019C171.591 235.288 175.771 237.519 178.48 241.711C180.633 245.019 181.607 248.83 181.402 253.144C181.058 260.359 177.464 267.065 170.619 273.262C168.232 275.423 166.894 278.006 166.601 281.011C166.478 282.011 166.387 283.125 166.329 284.353C166.219 286.663 164.257 288.447 161.946 288.338L159.77 288.234C157.459 288.123 155.676 286.162 155.785 283.851C156.099 277.268 157.95 272.455 161.338 269.41C164.997 266.118 167.565 262.681 169.041 259.097C169.886 257.012 170.364 254.799 170.476 252.457C170.591 250.04 170.142 248.117 169.129 246.689C168.014 245.034 166.316 244.301 164.034 244.49C161.901 244.649 160.306 246.046 159.249 248.679C159.196 248.807 159.143 248.937 159.093 249.07C158.354 251.011 156.294 252.108 154.269 251.652L152.283 251.205C149.824 250.651 148.401 248.063 149.258 245.694C150.11 243.339 151.368 241.273 153.033 239.493C154.839 237.567 157.288 236.229 160.381 235.482C162.003 235.075 163.855 234.92 165.939 235.019Z" fill="#AEDBED"/>
<path d="M197.796 208.455L199.455 208.164C201.217 207.855 202.896 209.033 203.205 210.795L203.504 212.496C203.813 214.257 202.636 215.937 200.873 216.246L199.214 216.537C197.453 216.846 195.774 215.668 195.465 213.906L195.166 212.206C194.857 210.444 196.035 208.764 197.796 208.455ZM192.44 161.693C196.75 160.936 200.282 161.91 203.036 164.612C205.222 166.743 206.604 169.453 207.182 172.741C208.147 178.243 206.573 183.911 202.462 189.748C201.028 191.783 200.456 193.958 200.745 196.275C200.823 197.051 200.944 197.907 201.107 198.842C201.417 200.604 200.239 202.283 198.478 202.592L196.819 202.883C195.057 203.192 193.378 202.015 193.068 200.252C192.188 195.234 192.767 191.289 194.806 188.418C197.008 185.312 198.362 182.283 198.867 179.33C199.15 177.614 199.135 175.863 198.822 174.077C198.499 172.233 197.834 170.86 196.827 169.955C195.706 168.895 194.3 168.63 192.61 169.16C191.029 169.642 190.062 170.966 189.713 173.133C189.693 173.238 189.676 173.345 189.66 173.454C189.433 175.043 188.064 176.222 186.459 176.221L184.886 176.22C182.937 176.219 181.423 174.509 181.668 172.576C181.911 170.655 182.51 168.883 183.464 167.258C184.5 165.498 186.121 164.073 188.326 162.985C189.48 162.403 190.851 161.971 192.44 161.693Z" fill="#AEDBED"/>
<path d="M76.4119 258.434L77.5133 258.718C78.6826 259.021 79.3846 260.215 79.082 261.384L78.7895 262.513C78.4868 263.683 77.2934 264.385 76.1241 264.082L75.0227 263.797C73.8534 263.494 73.1513 262.301 73.454 261.132L73.7465 260.002C74.0492 258.833 75.2426 258.13 76.4119 258.434ZM86.1998 228.195C89.0602 228.937 90.9589 230.522 91.8965 232.954C92.6437 234.874 92.735 236.927 92.1695 239.11C91.2241 242.76 88.6718 245.805 84.5118 248.242C83.0617 249.09 82.1015 250.268 81.6311 251.773C81.4619 252.271 81.2965 252.83 81.1358 253.452C80.8332 254.621 79.6397 255.324 78.4704 255.02L77.3698 254.736C76.2005 254.433 75.4977 253.239 75.8004 252.07C76.6631 248.739 78.1225 246.477 80.1795 245.282C82.401 243.989 84.0805 242.507 85.217 240.833C85.8707 239.858 86.3519 238.778 86.6585 237.591C86.9752 236.369 86.951 235.338 86.5852 234.5C86.1928 233.535 85.4026 232.979 84.2162 232.833C83.1093 232.686 82.1452 233.229 81.3238 234.463C81.2825 234.523 81.2419 234.584 81.2021 234.646C80.6171 235.559 79.447 235.9 78.4603 235.451L77.4938 235.011C76.2965 234.465 75.844 232.99 76.5359 231.871C77.2224 230.759 78.0859 229.837 79.1264 229.104C80.2552 228.313 81.6499 227.891 83.3106 227.838C84.1827 227.803 85.146 227.923 86.1998 228.195Z" fill="#AEDBED"/>
<path d="M119.672 263.258L123.072 262.385C126.682 261.458 130.36 263.633 131.287 267.243L132.182 270.729C133.109 274.339 130.934 278.018 127.324 278.945L123.924 279.818C120.314 280.744 116.637 278.57 115.709 274.96L114.814 271.473C113.887 267.863 116.062 264.185 119.672 263.258ZM100.989 166.978C109.82 164.71 117.315 166.162 123.474 171.331C128.359 175.404 131.667 180.81 133.398 187.549C136.293 198.822 133.94 210.852 126.341 223.642C123.691 228.1 122.855 232.713 123.831 237.479C124.116 239.077 124.506 240.835 124.999 242.753C125.925 246.363 123.751 250.041 120.141 250.968L116.74 251.841C113.131 252.768 109.452 250.594 108.526 246.983C105.885 236.698 106.451 228.409 110.222 222.114C114.296 215.308 116.619 208.797 117.19 202.58C117.502 198.97 117.188 195.334 116.248 191.673C115.279 187.898 113.676 185.151 111.438 183.433C108.937 181.413 105.973 181.09 102.549 182.464C99.3423 183.722 97.5483 186.628 97.1707 191.185C97.1489 191.407 97.1301 191.633 97.1153 191.861C96.8977 195.199 94.2471 197.868 90.9117 198.126L87.6418 198.379C83.5949 198.693 80.1737 195.383 80.3695 191.328C80.5645 187.3 81.5216 183.52 83.2408 179.99C85.1066 176.167 88.244 172.945 92.6512 170.327C94.9554 168.931 97.7339 167.814 100.989 166.978Z" fill="#AEDBED"/>
<path d="M342.144 265.503L344.547 264.886C347.097 264.231 349.697 265.768 350.352 268.319L350.984 270.783C351.64 273.334 350.103 275.933 347.551 276.588L345.149 277.205C342.598 277.861 339.999 276.323 339.344 273.772L338.711 271.308C338.056 268.758 339.593 266.158 342.144 265.503ZM328.941 197.464C335.182 195.862 340.479 196.888 344.831 200.541C348.283 203.418 350.621 207.239 351.844 212.001C353.889 219.967 352.227 228.469 346.857 237.507C344.984 240.657 344.393 243.916 345.083 247.285C345.285 248.415 345.56 249.658 345.908 251.012C346.563 253.563 345.026 256.162 342.475 256.818L340.072 257.435C337.522 258.09 334.923 256.552 334.267 254.002C332.401 246.734 332.801 240.877 335.466 236.427C338.345 231.618 339.986 227.017 340.391 222.623C340.611 220.072 340.389 217.503 339.725 214.915C339.04 212.248 337.906 210.306 336.326 209.092C334.558 207.666 332.464 207.436 330.044 208.408C327.777 209.296 326.51 211.351 326.243 214.57C326.227 214.727 326.214 214.887 326.203 215.048C326.05 217.408 324.177 219.293 321.82 219.476L319.509 219.655C316.649 219.876 314.231 217.538 314.37 214.672C314.507 211.825 315.184 209.154 316.399 206.659C317.718 203.957 319.935 201.681 323.05 199.831C324.677 198.844 326.641 198.055 328.941 197.464Z" fill="#AEDBED"/>
<path d="M331.157 152.623L332.485 152.282C333.895 151.92 335.332 152.769 335.694 154.179L336.043 155.541C336.406 156.952 335.556 158.389 334.146 158.75L332.818 159.091C331.407 159.453 329.971 158.604 329.609 157.194L329.259 155.832C328.897 154.422 329.747 152.985 331.157 152.623ZM323.859 115.015C327.308 114.129 330.237 114.696 332.641 116.716C334.55 118.306 335.842 120.418 336.518 123.05C337.648 127.453 336.73 132.153 333.761 137.148C332.727 138.891 332.4 140.691 332.781 142.553C332.893 143.178 333.045 143.864 333.237 144.613C333.599 146.023 332.75 147.46 331.339 147.822L330.012 148.163C328.602 148.525 327.165 147.676 326.803 146.266C325.772 142.248 325.992 139.011 327.466 136.551C329.057 133.893 329.964 131.35 330.187 128.921C330.309 127.512 330.187 126.091 329.819 124.661C329.441 123.186 328.814 122.114 327.94 121.442C326.963 120.654 325.806 120.527 324.468 121.064C323.215 121.555 322.515 122.691 322.367 124.47C322.359 124.558 322.351 124.646 322.346 124.735C322.261 126.039 321.225 127.081 319.923 127.182L318.645 127.281C317.065 127.403 315.729 126.111 315.805 124.526C315.881 122.953 316.255 121.476 316.927 120.098C317.655 118.604 318.881 117.345 320.602 116.323C321.502 115.778 322.587 115.341 323.859 115.015Z" fill="#AEDBED"/>
<path d="M152.999 176.075C152.999 176.075 160.683 138.616 143.176 140.461L126.439 175.309C126.439 175.309 137.658 179.907 152.999 176.075Z" fill="#361710"/>
<path d="M113.992 176.075C113.992 176.075 109.733 145.698 122.947 137.99L140.552 175.309C140.552 175.309 129.334 179.907 113.992 176.075Z" fill="#361710"/>
<path d="M86.8692 167.674H88.9067C91.0705 167.674 92.8248 169.429 92.8248 171.592V173.681C92.8248 175.846 91.0705 177.6 88.9067 177.6H86.8692C84.7054 177.6 82.9518 175.846 82.9518 173.681V171.592C82.9518 169.429 84.7054 167.674 86.8692 167.674ZM90.2655 110.839C95.558 110.839 99.5628 112.737 102.28 116.533C104.439 119.528 105.518 123.045 105.518 127.085C105.518 133.842 102.458 140.267 96.3396 146.361C94.2055 148.485 93.0697 150.958 92.9301 153.78C92.8599 154.72 92.8248 155.763 92.8248 156.913C92.8248 159.078 91.0705 160.831 88.9067 160.831H86.8692C84.7054 160.831 82.9518 159.078 82.9518 156.913C82.9518 150.749 84.4667 146.17 87.4963 143.175C90.7694 139.935 93.0151 136.61 94.2351 133.197C94.9309 131.212 95.2796 129.123 95.2796 126.928C95.2796 124.665 94.7749 122.889 93.7647 121.601C92.6501 120.104 91.0307 119.493 88.9067 119.771C86.9215 120.016 85.4932 121.392 84.6235 123.899C84.5782 124.02 84.5353 124.144 84.494 124.271C83.8902 126.117 82.0142 127.234 80.1016 126.899L78.2264 126.569C75.905 126.16 74.4596 123.806 75.1554 121.554C75.8465 119.317 76.9307 117.33 78.4066 115.592C80.0088 113.712 82.2373 112.354 85.0938 111.519C86.5907 111.066 88.3138 110.839 90.2655 110.839Z" fill="#FCC822"/>
<path d="M135.614 321.559C135.614 321.559 134.645 325.306 132.9 324.741C129.64 323.688 129.45 321.559 129.45 321.559C129.45 321.559 127.393 327.759 127.785 330.711C128.177 333.664 127.785 340.302 127.785 340.302H130.761C130.761 340.302 133.544 340.64 134.698 342.318C135.852 343.996 142.174 343.498 144.178 342.422C146.745 341.044 140.007 334.03 137.624 330.121C135.24 326.212 135.614 321.559 135.614 321.559Z" fill="#1C0906"/>
<path d="M130.045 266.385C132.101 261.306 139.437 261.363 141.246 266.534C141.572 267.466 141.808 268.442 141.962 269.429C142.723 274.279 141.959 282.051 139.957 291.978C137.255 305.371 135.795 332.089 131.103 332.482C126.41 332.875 129.168 310.409 129.07 297.124C128.972 283.838 126.879 274.206 129.85 266.868L130.045 266.385Z" fill="#CF9166"/>
<path d="M132.745 304.709C132.103 287.184 133.269 274.184 130.473 264.943L130.29 264.336C128.355 257.94 122.439 259.079 121.259 266.158C121.046 267.433 120.909 268.753 120.837 270.078C120.488 276.58 121.525 286.713 123.68 299.507C126.588 316.768 127.295 332.645 131.103 332.482C134.91 332.319 133.387 322.234 132.745 304.709Z" fill="#EDAC7C"/>
<path d="M127.428 324.641C127.428 324.641 128.258 331.26 130.568 330.86C132.839 330.466 133.592 324.641 133.592 324.641C133.592 324.641 135.649 330.84 135.258 333.793C135.037 335.456 135.065 338.29 135.131 340.448C135.18 342.056 133.891 343.383 132.282 343.383C132.282 343.383 129.498 343.722 128.344 345.4C127.19 347.078 120.868 346.581 118.864 345.504C116.296 344.126 123.035 337.112 125.419 333.203C127.803 329.293 127.428 324.641 127.428 324.641Z" fill="#361710"/>
<path d="M147.112 224.218L132.215 221.52V221.416L131.929 221.469L131.643 221.416V221.52L116.746 224.218C116.746 224.218 111.477 232.064 112.508 241.294C113.539 250.524 118.29 300.441 118.29 300.441H143.936C143.936 300.441 150.318 250.524 151.35 241.294C152.38 232.064 147.112 224.218 147.112 224.218Z" fill="#195172"/>
<path d="M148.888 227.542C147.948 225.463 147.112 224.217 147.112 224.217L132.215 221.519V221.416L131.929 221.468L131.644 221.416V221.519L116.746 224.217C116.746 224.217 115.91 225.463 114.971 227.542H148.888Z" fill="#0D435E"/>
<path d="M135.133 300.44L135.307 250.573L139.577 300.44" fill="#0D435E"/>
<path d="M112.385 238.315C113.831 238.273 116.266 237.985 119.791 236.871C125.971 234.917 126.023 226.758 126.023 226.758L125.858 222.567L116.746 224.217C116.746 224.217 112.574 230.437 112.385 238.315Z" fill="#0D435E"/>
<path d="M151.473 238.318C151.285 230.439 147.113 224.218 147.113 224.218L137.373 222.454L137.124 226.759C137.124 226.759 137.177 234.918 143.357 236.872C147.546 238.197 150.196 238.354 151.473 238.318Z" fill="#0D435E"/>
<path d="M117.578 181.9L128.161 177.599L136.467 177.689L149.445 183.101C149.445 183.101 142.68 206.354 143.125 212.354C143.571 218.354 147.112 225.145 147.112 225.145H117.578C117.578 225.145 122.866 214.446 121.705 208.134C120.543 201.822 117.578 181.9 117.578 181.9Z" fill="#5C93BC"/>
<path d="M142.408 145.547C138.817 138.828 119.831 136.448 116.341 157.573C113.795 172.968 131.115 176.598 139.895 173.779C154.831 168.984 146 152.267 142.408 145.547Z" fill="#3E150D"/>
<path d="M145.499 159.838C145.499 159.838 148.183 156.391 150.653 158.655C153.124 160.921 149.593 167.901 144.861 166.259L145.499 159.838Z" fill="#EDAC7C"/>
<path d="M145.257 162.272L144.928 165.577C149.021 166.312 151.357 160.613 149.474 159.823C147.952 159.184 146.062 161.183 145.257 162.272Z" fill="#F7A588"/>
<path d="M150.134 161.004C150.134 161.004 150.126 160.978 150.113 160.931C150.101 160.884 150.078 160.817 150.052 160.733C149.99 160.569 149.885 160.332 149.684 160.162C149.634 160.119 149.576 160.084 149.516 160.056C149.485 160.042 149.454 160.028 149.419 160.017L149.397 160.009L149.395 160.008C149.413 160.014 149.399 160.01 149.402 160.011L149.399 160.01L149.39 160.008L149.374 160.004L149.309 159.986C149.262 159.972 149.227 159.967 149.192 159.962C149.159 159.956 149.121 159.95 149.078 159.948C149.039 159.946 148.998 159.943 148.958 159.944C148.915 159.944 148.875 159.942 148.833 159.948C148.496 159.971 148.141 160.102 147.802 160.284C147.63 160.372 147.466 160.479 147.304 160.587C147.144 160.696 146.986 160.809 146.837 160.923C146.54 161.153 146.269 161.385 146.035 161.584C145.568 161.997 145.258 162.272 145.258 162.272C145.258 162.272 145.297 162.175 145.385 162.013C145.474 161.852 145.607 161.625 145.794 161.371C145.888 161.244 145.991 161.106 146.111 160.97C146.23 160.833 146.363 160.691 146.508 160.553C146.799 160.278 147.14 160.006 147.533 159.797C147.73 159.693 147.938 159.603 148.156 159.542C148.374 159.481 148.603 159.449 148.827 159.457C148.883 159.458 148.937 159.463 148.993 159.471C149.048 159.474 149.101 159.486 149.154 159.498C149.206 159.508 149.259 159.524 149.313 159.542C149.368 159.559 149.42 159.576 149.456 159.595L149.517 159.624L149.556 159.642L149.592 159.661C149.638 159.685 149.68 159.714 149.72 159.744C149.799 159.807 149.868 159.875 149.922 159.948C150.035 160.09 150.091 160.243 150.123 160.375C150.156 160.506 150.16 160.623 150.162 160.715C150.162 160.808 150.151 160.882 150.145 160.93C150.138 160.979 150.134 161.004 150.134 161.004Z" fill="#CF9166"/>
<path d="M120.613 159.569C120.613 159.569 118.004 156.067 115.486 158.278C112.966 160.488 116.346 167.544 121.113 166.004L120.613 159.569Z" fill="#EDAC7C"/>
<path d="M120.803 162.008L121.06 165.32C116.953 165.968 114.741 160.22 116.64 159.47C118.175 158.865 120.022 160.903 120.803 162.008Z" fill="#F7A588"/>
<path d="M115.956 160.636C115.956 160.636 115.963 160.612 115.977 160.564C115.991 160.517 116.014 160.45 116.044 160.366C116.107 160.203 116.217 159.969 116.423 159.803C116.473 159.761 116.531 159.729 116.593 159.701C116.625 159.689 116.655 159.674 116.688 159.665L116.715 159.657L116.716 159.656C116.697 159.663 116.712 159.657 116.708 159.659H116.712L116.72 159.655L116.736 159.652L116.802 159.636C116.847 159.623 116.884 159.619 116.919 159.614C116.953 159.608 116.992 159.605 117.034 159.603C117.073 159.601 117.112 159.599 117.154 159.602C117.195 159.602 117.236 159.602 117.279 159.609C117.613 159.638 117.967 159.776 118.302 159.967C118.471 160.059 118.634 160.168 118.794 160.279C118.951 160.393 119.106 160.509 119.253 160.627C119.545 160.863 119.811 161.1 120.041 161.304C120.499 161.727 120.803 162.009 120.803 162.009C120.803 162.009 120.765 161.911 120.68 161.747C120.597 161.584 120.467 161.354 120.286 161.095C120.195 160.967 120.094 160.827 119.977 160.688C119.86 160.549 119.733 160.404 119.59 160.262C119.305 159.982 118.97 159.703 118.582 159.484C118.389 159.378 118.18 159.283 117.963 159.218C117.747 159.152 117.519 159.114 117.296 159.117C117.239 159.116 117.184 159.122 117.129 159.127C117.073 159.13 117.02 159.139 116.966 159.152C116.915 159.159 116.862 159.173 116.807 159.191C116.752 159.208 116.701 159.223 116.663 159.243L116.602 159.269L116.563 159.286L116.527 159.304C116.48 159.327 116.436 159.356 116.395 159.385C116.316 159.446 116.246 159.513 116.189 159.584C116.073 159.725 116.015 159.876 115.98 160.006C115.943 160.137 115.937 160.253 115.934 160.347C115.931 160.44 115.94 160.513 115.946 160.562C115.952 160.61 115.956 160.636 115.956 160.636Z" fill="#CF9166"/>
<path d="M135.913 170.439L129.176 170.365C129.176 170.365 128.803 180.912 128.778 180.912C128.778 180.912 129.25 183.021 132.238 183.1C135.227 183.178 135.988 180.988 135.988 180.988C135.963 180.93 135.913 170.439 135.913 170.439Z" fill="#EDAC7C"/>
<path d="M135.988 174.322L128.964 174.087C128.964 174.087 128.924 177.968 128.899 177.968C128.899 177.968 129.277 180.435 132.266 180.514C135.255 180.592 135.958 178.326 135.958 178.326C135.935 178.267 135.988 174.322 135.988 174.322Z" fill="#CF9166"/>
<path d="M135.891 172.378L129.154 172.305C129.154 172.305 129.054 173.651 128.965 174.797C128.951 174.962 130.884 175.277 131.093 175.312C132.739 175.591 134.366 175.397 135.975 175.005C135.935 173.832 135.891 172.378 135.891 172.378Z" fill="#CF9166"/>
<path d="M148.935 157.094C148.844 165.495 141.481 172.228 132.49 172.131C123.498 172.034 116.283 165.144 116.373 156.743C116.463 148.34 123.826 141.608 132.818 141.705C141.809 141.802 149.026 148.691 148.935 157.094Z" fill="#3E150D"/>
<path d="M147.206 156.868C147.093 152.186 145.129 147.745 140.523 145.878C138.181 144.928 135.602 144.655 133.085 144.668C130.598 144.682 127.949 144.814 125.602 145.69C121.399 147.26 120.258 144.697 119.786 148.968C119.739 149.386 119.184 151.175 118.614 156.559C118.512 157.519 118.486 158.472 118.51 159.441C118.568 161.617 118.89 163.803 119.578 165.876C120.411 168.392 121.823 170.734 123.895 172.454C125.072 173.432 126.431 174.185 127.874 174.713C130.257 175.581 132.532 175.884 135.039 175.45C136.738 175.157 138.397 174.621 139.894 173.779C142.38 172.383 144.253 170.191 145.436 167.646C146.43 165.505 146.961 163.17 147.172 160.832C147.288 159.552 147.327 158.25 147.215 156.97C147.212 156.935 147.207 156.902 147.206 156.868Z" fill="#EDAC7C"/>
<path d="M137.26 161.297C137.194 162.626 138.13 163.752 139.351 163.812C140.573 163.872 141.616 162.842 141.683 161.512C141.749 160.182 140.814 159.057 139.592 158.998C138.371 158.937 137.326 159.968 137.26 161.297Z" fill="#CF9166"/>
<path d="M137.288 160.734C137.221 162.064 138.158 163.189 139.379 163.249C140.601 163.31 141.644 162.279 141.71 160.95C141.778 159.621 140.842 158.494 139.62 158.434C138.399 158.376 137.354 159.405 137.288 160.734Z" fill="black"/>
<path d="M138.08 160.119C138.055 160.6 138.434 161.011 138.923 161.034C139.413 161.058 139.83 160.688 139.853 160.206C139.878 159.724 139.5 159.316 139.011 159.291C138.521 159.266 138.104 159.638 138.08 160.119Z" fill="white"/>
<path d="M124.072 160.778C124.006 162.107 124.942 163.232 126.163 163.292C127.385 163.352 128.428 162.321 128.494 160.993C128.561 159.664 127.626 158.537 126.404 158.478C125.184 158.42 124.139 159.448 124.072 160.778Z" fill="#CF9166"/>
<path d="M124.101 160.214C124.034 161.544 124.971 162.669 126.191 162.73C127.413 162.789 128.456 161.76 128.523 160.43C128.591 159.101 127.654 157.974 126.432 157.916C125.212 157.856 124.167 158.886 124.101 160.214Z" fill="black"/>
<path d="M124.892 159.6C124.869 160.082 125.245 160.492 125.736 160.515C126.225 160.54 126.643 160.169 126.667 159.686C126.69 159.205 126.314 158.795 125.822 158.772C125.333 158.748 124.917 159.118 124.892 159.6Z" fill="white"/>
<path d="M131.865 159.311C131.865 159.311 132.189 162.238 130.811 161.994C128.143 161.528 128.136 167.245 132.164 165.116C133.685 164.313 133.184 159.351 133.184 159.351L131.865 159.311Z" fill="#F48470"/>
<path d="M129.038 167.692C129.038 167.692 134.406 168.585 136.956 165.509C136.956 165.509 139.101 171.255 133.338 171.993C129.697 172.456 129.038 167.692 129.038 167.692Z" fill="#B43128"/>
<path d="M130.863 171.315C131.473 171.818 132.279 172.126 133.338 171.992C134.645 171.824 135.544 171.398 136.156 170.843C136.331 170.675 136.487 170.496 136.629 170.309C136.633 170.306 136.636 170.301 136.639 170.297C136.642 170.294 136.642 170.292 136.643 170.291C137.083 169.669 137.271 168.957 137.328 168.275C134.089 167.428 131.767 169.96 130.863 171.315Z" fill="#F05736"/>
<path d="M129.038 167.692C129.038 167.692 129.045 167.733 129.057 167.805C129.58 167.913 130.547 169.049 131.849 169.004C132.672 168.976 133.48 168.748 134.221 168.4C134.681 168.184 135.155 167.975 135.553 167.656C135.858 167.413 136.077 166.692 136.206 166.245C133.484 168.43 129.039 167.692 129.038 167.692Z" fill="white"/>
<path d="M129.397 168.028C129.63 169.103 130.527 172.06 133.301 171.705C134.838 171.51 135.917 170.924 136.51 169.966C137.329 168.643 137.036 166.907 136.825 166.082C134.519 168.369 130.662 168.166 129.397 168.028ZM132.804 172.308C129.419 172.272 128.756 167.779 128.75 167.729C128.737 167.641 128.768 167.549 128.835 167.486C128.903 167.423 128.995 167.393 129.087 167.409C129.139 167.417 134.32 168.236 136.73 165.327C136.797 165.248 136.901 165.208 137.005 165.226C137.109 165.243 137.194 165.313 137.231 165.41C137.273 165.523 138.261 168.234 137.011 170.261C136.322 171.376 135.099 172.056 133.376 172.275C133.176 172.3 132.987 172.311 132.804 172.308Z" fill="#F05B4E"/>
<path d="M126.95 167.378C126.936 168.605 125.915 169.589 124.666 169.575C123.418 169.562 122.416 168.556 122.429 167.329C122.443 166.102 123.465 165.119 124.713 165.132C125.961 165.147 126.963 166.151 126.95 167.378Z" fill="#F49B77"/>
<path d="M143.175 166.124C143.162 167.351 142.139 168.335 140.89 168.321C139.643 168.308 138.642 167.303 138.654 166.075C138.668 164.849 139.69 163.866 140.938 163.879C142.186 163.893 143.189 164.898 143.175 166.124Z" fill="#F49B77"/>
<path d="M122.55 154.706C122.55 154.706 122.6 154.614 122.717 154.471C122.777 154.403 122.848 154.313 122.942 154.227C123.032 154.136 123.141 154.041 123.266 153.942C123.391 153.845 123.532 153.747 123.688 153.651C123.844 153.56 124.012 153.462 124.196 153.385C124.375 153.297 124.57 153.229 124.77 153.162C124.969 153.094 125.18 153.055 125.387 153.002C125.596 152.969 125.809 152.937 126.016 152.917C126.225 152.905 126.432 152.899 126.628 152.9C126.828 152.911 127.019 152.928 127.199 152.946C127.38 152.967 127.547 153.008 127.702 153.038C127.855 153.073 127.994 153.103 128.116 153.15C128.237 153.191 128.342 153.232 128.427 153.265C128.596 153.33 128.692 153.377 128.692 153.377C128.692 153.377 128.584 153.392 128.403 153.404C128.312 153.411 128.203 153.421 128.079 153.424C127.958 153.424 127.817 153.441 127.666 153.453C127.516 153.467 127.355 153.467 127.185 153.485C127.015 153.504 126.839 153.521 126.656 153.534C126.474 153.559 126.288 153.587 126.096 153.608C125.909 153.64 125.72 153.672 125.529 153.705C125.433 153.726 125.34 153.747 125.246 153.767C125.151 153.787 125.057 153.803 124.967 153.83C124.875 153.855 124.783 153.878 124.692 153.899C124.6 153.92 124.517 153.953 124.428 153.977C124.252 154.024 124.086 154.083 123.926 154.135C123.844 154.159 123.77 154.194 123.695 154.219C123.621 154.246 123.546 154.269 123.479 154.3C123.341 154.353 123.213 154.404 123.102 154.453C122.986 154.499 122.89 154.547 122.806 154.583C122.729 154.623 122.66 154.649 122.619 154.673C122.574 154.694 122.55 154.706 122.55 154.706Z" fill="black"/>
<path d="M141.784 157.918C141.784 157.918 141.722 157.833 141.589 157.707C141.519 157.647 141.439 157.566 141.336 157.491C141.234 157.414 141.112 157.334 140.978 157.252C140.841 157.171 140.688 157.092 140.522 157.018C140.353 156.947 140.175 156.871 139.983 156.819C139.794 156.754 139.592 156.711 139.386 156.671C139.18 156.628 138.966 156.617 138.754 156.592C138.54 156.585 138.328 156.58 138.118 156.587C137.909 156.602 137.704 156.623 137.507 156.649C137.312 156.686 137.125 156.727 136.947 156.767C136.773 156.81 136.612 156.873 136.463 156.924C136.315 156.978 136.179 157.026 136.066 157.086C135.951 157.143 135.852 157.197 135.773 157.241C135.61 157.328 135.524 157.385 135.524 157.385C135.524 157.385 135.632 157.388 135.813 157.377C135.903 157.372 136.013 157.366 136.137 157.355C136.259 157.34 136.398 157.338 136.55 157.33C136.7 157.324 136.86 157.304 137.032 157.3C137.203 157.297 137.38 157.292 137.562 157.282C137.746 157.284 137.936 157.287 138.127 157.282C138.317 157.289 138.509 157.299 138.703 157.306C138.799 157.315 138.895 157.323 138.991 157.331C139.086 157.339 139.182 157.342 139.277 157.359C139.37 157.373 139.464 157.382 139.557 157.392C139.65 157.401 139.74 157.423 139.829 157.435C140.011 157.459 140.181 157.497 140.348 157.528C140.432 157.54 140.508 157.565 140.586 157.58C140.664 157.598 140.742 157.612 140.812 157.632C140.955 157.67 141.089 157.703 141.206 157.737C141.327 157.769 141.427 157.803 141.513 157.828C141.596 157.858 141.667 157.875 141.713 157.893C141.759 157.909 141.784 157.918 141.784 157.918Z" fill="black"/>
<path d="M147.013 163.854C147.013 163.854 147.368 163.2 148.043 161.952C150.571 157.277 151.638 151.792 150.274 146.656C149.541 143.895 148.031 142.552 146.802 141.9C145.542 141.234 139.813 137.616 136.375 136.572C130.168 134.687 123.558 136.649 118.914 139.874C114.269 143.098 108.211 153.663 113.234 153.772C118.258 153.881 125.893 146.814 123.624 148.635C120.376 151.244 123.556 151.52 130.825 151.769C138.093 152.017 142.403 149.488 142.403 149.488C142.403 149.488 142.129 151.712 143.2 155.008C144.27 158.305 147.241 162.059 147.241 162.059" fill="#361710"/>
<path d="M124.256 179.187L126.023 224.11C126.023 224.11 125.971 232.268 119.791 234.223C113.611 236.178 110.767 235.591 110.767 235.591C110.767 235.591 117.485 206.635 116.138 200.15C114.791 193.666 112.727 183.305 112.727 183.305L124.256 179.187Z" fill="#122738"/>
<path d="M139.728 179.067L137.125 224.11C137.125 224.11 137.177 232.268 143.357 234.223C149.537 236.178 152.381 235.591 152.381 235.591C152.381 235.591 145.662 206.635 147.009 200.15C148.357 193.666 150.421 183.306 150.421 183.306L139.728 179.067Z" fill="#122738"/>
<path d="M157.359 191.931C157.359 191.931 169.829 206.695 169.852 211.34C169.873 215.986 163.332 214.52 163.332 214.52L151.514 197.651L157.359 191.931Z" fill="#EDAC7C"/>
<path d="M157.359 191.93L151.514 197.65L156.212 204.356C156.212 204.356 158.998 200.201 164.046 200.514C160.784 195.986 157.359 191.93 157.359 191.93Z" fill="#CF9166"/>
<path d="M112.009 193.334C112.009 193.334 95.3494 203.129 90.7675 202.366C86.1847 201.603 88.7355 195.403 88.7355 195.403L107.36 186.606L112.009 193.334Z" fill="#EDAC7C"/>
<path d="M98.2027 200.407C104.52 197.735 112.009 193.334 112.009 193.334L107.36 186.606L98.198 190.933C98.198 190.933 101.595 198.32 98.2027 200.407" fill="#CF9166"/>
<path d="M167.034 214.607C167.067 214.588 167.101 214.568 167.134 214.547C168.446 213.754 169.411 212.472 170.071 211.087C171.476 208.14 172.219 204.726 173.287 201.634C174.119 199.225 174.874 196.628 175.893 194.204C175.737 194.133 175.59 194.042 175.46 193.919C174.164 192.706 173.527 191.883 172.035 190.919C171.608 194.641 166.385 201.947 164.205 207.754C163.774 208.901 163.399 210.089 163.357 211.314C163.279 213.618 164.531 216.054 167.034 214.607Z" fill="#EEC9B1"/>
<path d="M164.265 215.564C164.915 215.954 165.996 216.241 167.483 215.383L167.598 215.315C168.933 214.507 170.067 213.178 170.881 211.473C171.832 209.478 172.485 207.288 173.118 205.17C173.439 204.09 173.772 202.974 174.134 201.927C174.389 201.192 174.635 200.439 174.884 199.68C175.445 197.972 176.024 196.207 176.719 194.551L177.057 193.746L176.261 193.386C176.184 193.351 176.123 193.312 176.073 193.265C175.729 192.944 175.433 192.65 175.155 192.375C174.368 191.595 173.689 190.921 172.522 190.166L171.31 189.382L171.144 190.817C170.925 192.732 169.205 195.894 167.385 199.243C165.889 201.991 164.345 204.832 163.366 207.439C162.945 208.56 162.508 209.893 162.461 211.283C162.396 213.188 163.105 214.867 164.265 215.564Z" fill="#EDAC7C"/>
<path d="M174.976 191.721C174.978 191.716 175.968 188.727 176.349 188.61C176.732 188.494 177.411 188.766 177.411 188.766L176.266 193.052C176.266 193.052 177.862 189.464 178.485 189.156C179.107 188.847 179.803 189.173 179.803 189.173L177.899 194.108C177.899 194.108 179.025 190.543 179.69 189.982C180.356 189.423 181.145 189.661 181.145 189.661L179.538 194.983L179.394 194.31C179.394 194.31 180.492 192.425 181.164 192.281C181.836 192.136 182.483 192.298 182.483 192.298C182.483 192.298 181.274 194.216 180.753 195.449C180.232 196.681 179.287 196.909 179.287 196.909C177.168 196.26 175.36 194.677 173.618 193.325C172.27 192.278 171.309 189.382 171.309 189.382C171.309 189.382 173.137 187.691 174.976 191.721Z" fill="#EDAC7C"/>
<path d="M89.1878 200.513C89.1628 200.483 89.1378 200.454 89.1137 200.423C88.1519 199.23 87.6815 197.696 87.5333 196.168C87.2189 192.919 87.6854 189.456 87.7361 186.184C87.7759 183.637 87.953 180.937 87.8227 178.311C87.9927 178.298 88.1628 178.262 88.3266 178.192C89.9584 177.493 90.8383 176.938 92.5692 176.541C91.701 180.184 94.1168 188.834 94.1855 195.036C94.1987 196.262 94.1457 197.507 93.7674 198.673C93.0552 200.865 91.0466 202.729 89.1878 200.513Z" fill="#EEC9B1"/>
<path d="M91.4635 202.358C90.7194 202.503 89.6063 202.404 88.5009 201.09L88.4151 200.985C87.4362 199.771 86.8231 198.136 86.6406 196.254C86.4276 194.055 86.561 191.774 86.6897 189.567C86.7552 188.442 86.8231 187.279 86.8402 186.171C86.8519 185.394 86.8769 184.602 86.9019 183.804C86.958 182.007 87.0158 180.15 86.9276 178.356L86.8839 177.483L87.7545 177.417C87.8395 177.412 87.9105 177.395 87.9736 177.368C88.4066 177.184 88.7841 177.008 89.1406 176.844C90.1461 176.379 91.0142 175.978 92.3684 175.667L93.7756 175.343L93.4417 176.749C92.994 178.623 93.5322 182.183 94.1008 185.952C94.5681 189.044 95.0509 192.243 95.0821 195.028C95.0954 196.225 95.0509 197.626 94.6204 198.949C94.0314 200.761 92.7927 202.099 91.4635 202.358Z" fill="#EDAC7C"/>
<path d="M89.5305 176.291C89.5305 176.285 89.621 173.137 89.302 172.898C88.9814 172.658 88.2505 172.681 88.2505 172.681L87.8644 177.102C87.8644 177.102 87.589 173.184 87.1085 172.682C86.6288 172.179 85.8636 172.248 85.8636 172.248L85.9689 177.537C85.9689 177.537 86.1272 173.802 85.6927 173.048C85.2583 172.295 84.4361 172.249 84.4361 172.249L84.1303 177.8L84.4954 177.217C84.4954 177.217 84.1061 175.071 83.5234 174.705C82.9408 174.34 82.2785 174.272 82.2785 174.272C82.2785 174.272 82.759 176.488 82.8284 177.824C82.8979 179.16 83.7083 179.696 83.7083 179.696C85.9228 179.81 88.1616 178.939 90.2614 178.261C91.8847 177.737 93.7755 175.343 93.7755 175.343C93.7755 175.343 92.6351 173.13 89.5305 176.291Z" fill="#EDAC7C"/>
<path d="M150.421 183.305C150.421 183.305 160.575 191.421 162.996 196.173L152.322 203.878L144.243 191.931L150.421 183.305Z" fill="#122738"/>
<path d="M112.728 183.304C112.728 183.304 103.996 187.584 98.7787 190.353L103.484 201.87L118.395 196.372L112.728 183.304Z" fill="#122738"/>
<path d="M133.08 341.841C131.635 342.143 129.407 341.3 127.735 343.888C126.123 346.383 122.335 346.344 122.062 346.338C124.593 346.663 127.585 346.504 128.344 345.4C129.499 343.721 132.282 343.383 132.282 343.383C133.891 343.383 135.18 342.055 135.131 340.447C135.128 340.354 135.126 340.252 135.123 340.155C134.603 340.868 133.86 341.679 133.08 341.841Z" fill="#1C0906"/>
<path d="M285.973 141.533L287.174 141.959C288.45 142.411 289.118 143.812 288.666 145.088L288.23 146.32C287.778 147.596 286.377 148.264 285.101 147.812L283.9 147.387C282.624 146.934 281.956 145.533 282.408 144.257L282.844 143.025C283.296 141.749 284.697 141.081 285.973 141.533ZM299.847 108.728C302.968 109.833 304.933 111.789 305.742 114.595C306.39 116.813 306.292 119.112 305.448 121.495C304.037 125.478 300.89 128.628 296.009 130.943C294.307 131.751 293.12 132.971 292.449 134.606C292.212 135.145 291.972 135.754 291.732 136.432C291.28 137.708 289.879 138.375 288.604 137.924L287.403 137.498C286.127 137.046 285.458 135.645 285.911 134.369C287.198 130.734 289.048 128.351 291.461 127.217C294.067 125.991 296.085 124.499 297.518 122.741C298.343 121.716 298.986 120.556 299.443 119.263C299.916 117.928 299.99 116.775 299.663 115.805C299.318 114.689 298.491 113.991 297.181 113.711C295.959 113.441 294.83 113.954 293.792 115.25C293.741 115.313 293.689 115.377 293.638 115.443C292.897 116.405 291.557 116.672 290.5 116.074L289.463 115.488C288.179 114.763 287.819 113.073 288.699 111.89C289.574 110.715 290.628 109.77 291.862 109.054C293.199 108.279 294.797 107.944 296.656 108.048C297.633 108.094 298.697 108.321 299.847 108.728Z" fill="#FCC822"/>
<path d="M202.063 145.158L203.819 145.501C205.685 145.866 206.901 147.675 206.536 149.539L206.184 151.341C205.818 153.206 204.01 154.422 202.145 154.057L200.389 153.714C198.524 153.349 197.307 151.541 197.673 149.676L198.025 147.874C198.39 146.009 200.198 144.792 202.063 145.158ZM214.579 96.7339C219.142 97.627 222.275 99.939 223.976 103.669C225.332 106.616 225.67 109.831 224.988 113.313C223.848 119.138 220.126 124.16 213.823 128.382C211.625 129.854 210.228 131.793 209.632 134.201C209.413 135 209.206 135.895 209.013 136.886C208.648 138.751 206.84 139.968 204.974 139.602L203.218 139.258C201.352 138.893 200.136 137.085 200.501 135.22C201.542 129.906 203.62 126.214 206.737 124.143C210.105 121.903 212.602 119.415 214.23 116.678C215.165 115.084 215.818 113.342 216.188 111.45C216.57 109.499 216.434 107.883 215.78 106.601C215.072 105.123 213.78 104.324 211.901 104.206C210.148 104.081 208.685 105.026 207.512 107.041C207.453 107.138 207.395 107.238 207.338 107.34C206.506 108.829 204.7 109.476 203.108 108.863L201.547 108.263C199.615 107.519 198.765 105.246 199.746 103.422C200.719 101.61 201.988 100.079 203.555 98.8314C205.252 97.4804 207.403 96.6855 210.006 96.4468C211.373 96.3095 212.897 96.4047 214.579 96.7339Z" fill="#FCC822"/>
<path d="M173.745 176.345L174.98 176.028C176.29 175.691 177.626 176.481 177.963 177.792L178.288 179.059C178.625 180.369 177.835 181.705 176.523 182.042L175.289 182.359C173.978 182.695 172.642 181.906 172.306 180.594L171.98 179.328C171.643 178.017 172.434 176.682 173.745 176.345ZM166.959 141.378C170.167 140.554 172.888 141.082 175.126 142.959C176.899 144.438 178.101 146.401 178.729 148.849C179.781 152.943 178.927 157.313 176.167 161.957C175.204 163.577 174.9 165.251 175.255 166.982C175.359 167.563 175.5 168.201 175.679 168.898C176.016 170.209 175.225 171.545 173.914 171.881L172.68 172.198C171.369 172.534 170.033 171.745 169.696 170.434C168.738 166.699 168.943 163.688 170.313 161.403C171.792 158.931 172.636 156.566 172.843 154.308C172.956 152.997 172.842 151.676 172.501 150.347C172.149 148.976 171.567 147.978 170.754 147.354C169.845 146.621 168.77 146.503 167.526 147.002C166.361 147.459 165.71 148.515 165.572 150.169C165.565 150.25 165.558 150.331 165.552 150.415C165.473 151.628 164.511 152.597 163.299 152.69L162.112 152.782C160.642 152.895 159.4 151.694 159.471 150.221C159.542 148.759 159.889 147.386 160.514 146.104C161.192 144.715 162.331 143.545 163.931 142.594C164.768 142.087 165.777 141.682 166.959 141.378Z" fill="#FCC822"/>
<path d="M362.755 176.513L363.989 176.196C365.3 175.859 366.636 176.649 366.972 177.96L367.298 179.226C367.635 180.538 366.844 181.873 365.534 182.21L364.298 182.527C362.988 182.864 361.652 182.074 361.315 180.762L360.99 179.496C360.653 178.186 361.443 176.85 362.755 176.513ZM355.969 141.547C359.177 140.723 361.898 141.25 364.135 143.127C365.909 144.607 367.11 146.569 367.739 149.017C368.791 153.112 367.936 157.481 365.177 162.126C364.214 163.745 363.91 165.419 364.265 167.151C364.369 167.731 364.51 168.37 364.688 169.066C365.025 170.377 364.235 171.713 362.925 172.049L361.69 172.367C360.379 172.703 359.043 171.914 358.706 170.602C357.748 166.868 357.953 163.857 359.322 161.57C360.802 159.099 361.645 156.735 361.853 154.476C361.966 153.165 361.852 151.845 361.511 150.516C361.159 149.143 360.577 148.147 359.764 147.523C358.855 146.789 357.78 146.672 356.536 147.171C355.372 147.627 354.719 148.682 354.582 150.338C354.574 150.418 354.567 150.5 354.563 150.583C354.483 151.796 353.521 152.765 352.309 152.859L351.122 152.951C349.652 153.064 348.41 151.862 348.481 150.39C348.552 148.927 348.899 147.554 349.524 146.271C350.201 144.883 351.34 143.714 352.941 142.763C353.778 142.256 354.787 141.85 355.969 141.547Z" fill="#FCC822"/>
<path d="M222.949 222.839L228.152 200.865L218.69 200.508L213.719 220.792C213.368 222.223 213.45 223.727 213.953 225.111L222.996 249.995L233.826 248.95L222.949 222.839Z" fill="#A7A6BB"/>
<path d="M218.671 219.906C219.636 217.966 220.572 216.232 221.48 214.703C222.737 212.46 224.326 210.558 226.232 208.979L228.153 200.866L218.69 200.509L213.719 220.793C213.474 221.793 213.453 222.826 213.626 223.831C215.739 223.369 217.633 221.994 218.671 219.906Z" fill="#727293"/>
<path d="M232.169 295.33L231.939 296.398L230.729 302.01L225.375 326.851L224.791 329.55L224.661 330.158L223.584 341.956L222.315 342.34C219.095 343.318 215.806 343.107 212.935 341.929C211.76 341.447 210.562 340.273 209.726 339.34C208.78 338.283 208.015 337.07 207.422 335.782C205.719 332.079 205.325 327.861 205.236 323.835C205.206 322.473 205.214 321.112 205.214 319.75V306.402V294.731V290.491C206.197 290.491 207.301 290.368 208.091 290.314C208.801 290.268 210.078 290.03 210.81 290.03C213.679 289.046 216.637 289.315 219.407 288.978C220.722 288.818 221.995 288.741 223.193 288.692C224.863 288.625 226.389 288.725 227.692 289.048C230.425 289.728 232.169 291.522 232.169 295.33Z" fill="#1C1B2D"/>
<path d="M253.649 332.366L225.162 341.479L223.584 341.957L222.315 342.34C219.095 343.318 215.806 343.107 212.935 341.93C212.187 341.509 211.48 341.019 210.826 340.469C210.821 340.465 210.819 340.461 210.814 340.456C208.608 338.419 207.065 335.666 206.533 332.563L223.018 327.564L225.374 326.851L249.865 319.887L253.649 332.366Z" fill="#1C1B2D"/>
<path d="M268.735 334.422C268.368 332.833 267.729 330.865 267.587 330.244C267.043 327.863 266.238 325.538 265.554 323.194C265.304 322.336 264.998 321.744 264.893 321.556C264.84 321.47 264.847 321.474 264.893 321.556C264.969 321.681 265.169 321.989 265.559 322.524C264.844 321.546 264.27 320.625 263.797 319.515C263.263 318.262 262.853 317.008 262.545 315.759L244.934 321.018L248.921 334.373L257.183 331.906C257.694 331.754 258.23 332.043 258.382 332.553L259.233 335.402C259.496 336.284 259.876 337.099 260.334 337.851C260.813 337.684 261.302 337.544 261.802 337.436C263.985 336.966 266.067 336.193 268.157 335.445C268.335 335.097 268.525 334.755 268.735 334.422Z" fill="#361710"/>
<path d="M252.506 323.076C254.054 322.614 255.683 323.495 256.146 325.042C256.608 326.59 255.728 328.219 254.18 328.682C252.633 329.144 251.003 328.264 250.541 326.716C250.079 325.169 250.959 323.539 252.506 323.076Z" fill="white"/>
<path d="M259.309 335.634C261.056 341.027 266.796 344.065 272.256 342.435C272.765 342.282 273.056 341.746 272.903 341.237L270.254 332.366L259.309 335.634Z" fill="white"/>
<path d="M268.689 342.858C269.861 342.922 271.066 342.791 272.256 342.435C272.766 342.283 273.056 341.746 272.904 341.237L265.345 315.928C265.194 315.418 264.657 315.128 264.147 315.281L260.756 316.293L268.689 342.858Z" fill="white"/>
<path d="M253.356 252.53L251.821 255.674L243.776 272.151L230.536 299.271L205.562 289.158L213.209 271.77L218.693 259.306L227.091 240.212L253.356 252.53Z" fill="#A7A6BB"/>
<path d="M248.873 257.931C248.594 257.931 248.067 257.549 247.436 257.015C246.062 264.238 238.989 269.898 231.645 269.898C225.393 269.898 220.278 266.336 217.612 261.245L212.098 274.298L217.939 283.193C219.177 285.03 221.601 285.646 223.568 284.622L242.664 274.68L250.709 258.204C250.118 258.024 249.498 257.931 248.873 257.931Z" fill="#727293"/>
<path d="M240.707 261.897C239.261 261.897 237.884 261.688 236.575 261.332L220.547 294.162L205.96 288.254L205.562 289.158L230.535 299.272L250.462 258.458C247.667 260.599 244.219 261.897 240.707 261.897Z" fill="#727293"/>
<path d="M258.187 230.592C258.187 230.592 262.063 228.335 263.55 231.438C265.039 234.541 259.004 239.841 255.124 236.467L258.187 230.592Z" fill="#EDAC7C"/>
<path d="M257.026 232.819L255.448 235.843C259.067 238.109 263.472 233.572 261.98 232.099C260.774 230.908 258.21 232.091 257.026 232.819Z" fill="#F7A588"/>
<path d="M262.157 233.476C262.157 233.476 262.159 233.448 262.166 233.398C262.172 233.348 262.176 233.275 262.183 233.185C262.187 233.006 262.177 232.74 262.051 232.501C262.02 232.441 261.978 232.387 261.932 232.336C261.907 232.311 261.883 232.286 261.854 232.261L261.835 232.245L261.834 232.243C261.848 232.257 261.837 232.247 261.839 232.249L261.837 232.247L261.829 232.242L261.816 232.231L261.761 232.191C261.722 232.16 261.69 232.141 261.659 232.123C261.629 232.103 261.595 232.085 261.555 232.066C261.519 232.048 261.481 232.029 261.442 232.016C261.402 231.999 261.364 231.982 261.321 231.971C260.992 231.866 260.603 231.855 260.211 231.898C260.013 231.916 259.816 231.955 259.62 231.996C259.426 232.039 259.233 232.086 259.048 232.138C258.676 232.243 258.329 232.36 258.03 232.461C257.428 232.676 257.026 232.819 257.026 232.819C257.026 232.819 257.102 232.742 257.247 232.621C257.393 232.501 257.607 232.337 257.882 232.165C258.02 232.081 258.171 231.989 258.337 231.905C258.503 231.82 258.683 231.736 258.875 231.66C259.258 231.509 259.687 231.38 260.141 231.33C260.368 231.308 260.6 231.301 260.832 231.327C261.063 231.352 261.293 231.409 261.503 231.502C261.556 231.524 261.606 231.55 261.657 231.578C261.708 231.603 261.754 231.635 261.8 231.666C261.846 231.696 261.89 231.73 261.935 231.768C261.98 231.806 262.023 231.841 262.049 231.873L262.098 231.926L262.127 231.957L262.154 231.989C262.189 232.029 262.218 232.072 262.245 232.117C262.297 232.206 262.336 232.298 262.36 232.387C262.413 232.567 262.407 232.734 262.387 232.872C262.369 233.009 262.329 233.122 262.294 233.21C262.259 233.299 262.221 233.365 262.197 233.409C262.171 233.453 262.157 233.476 262.157 233.476Z" fill="#CF9166"/>
<path d="M234.578 220.82C234.578 220.82 233.432 216.485 230.187 217.628C226.94 218.771 227.464 226.786 232.595 227.143L234.578 220.82Z" fill="#EDAC7C"/>
<path d="M233.826 223.217L232.804 226.471C228.645 225.517 228.734 219.195 230.831 219.207C232.524 219.216 233.504 221.866 233.826 223.217Z" fill="#F7A588"/>
<path d="M229.733 220.055C229.733 220.055 229.749 220.034 229.781 219.994C229.812 219.954 229.859 219.9 229.92 219.832C230.042 219.7 230.237 219.519 230.496 219.44C230.56 219.42 230.627 219.411 230.698 219.408C230.733 219.409 230.768 219.406 230.802 219.41L230.83 219.413H230.832C230.811 219.412 230.828 219.412 230.824 219.412L230.827 219.413L230.836 219.413L230.853 219.416L230.921 219.426C230.97 219.43 231.006 219.441 231.041 219.45C231.077 219.456 231.114 219.468 231.155 219.484C231.194 219.495 231.232 219.51 231.27 219.527C231.309 219.544 231.348 219.559 231.386 219.582C231.694 219.738 231.978 220.006 232.225 220.314C232.35 220.467 232.464 220.633 232.574 220.801C232.68 220.969 232.783 221.139 232.878 221.306C233.066 221.644 233.229 221.971 233.37 222.253C233.644 222.832 233.826 223.217 233.826 223.217C233.826 223.217 233.827 223.108 233.81 222.92C233.793 222.734 233.757 222.464 233.683 222.149C233.645 221.991 233.602 221.82 233.544 221.643C233.486 221.465 233.42 221.278 233.338 221.089C233.174 220.713 232.962 220.319 232.676 219.962C232.532 219.785 232.37 219.616 232.188 219.471C232.007 219.325 231.804 219.203 231.59 219.121C231.537 219.097 231.482 219.082 231.428 219.066C231.374 219.047 231.32 219.036 231.263 219.027C231.212 219.016 231.155 219.008 231.096 219.004C231.038 218.998 230.982 218.994 230.939 218.998L230.871 218.999L230.827 219.001L230.786 219.005C230.733 219.008 230.68 219.019 230.629 219.031C230.531 219.059 230.439 219.096 230.357 219.141C230.194 219.232 230.08 219.354 229.997 219.464C229.911 219.575 229.861 219.682 229.823 219.771C229.785 219.859 229.765 219.932 229.751 219.98C229.739 220.029 229.733 220.055 229.733 220.055Z" fill="#CF9166"/>
<path d="M244.999 237.027L238.609 234.381C238.609 234.381 234.22 244.288 234.197 244.278C234.197 244.278 233.839 246.468 236.657 247.686C239.475 248.903 241.037 247.109 241.037 247.109C241.036 247.044 244.999 237.027 244.999 237.027Z" fill="#EDAC7C"/>
<path d="M242.946 242.345L236.122 239.975C236.122 239.975 234.598 243.462 234.574 243.452C234.574 243.452 234.311 245.203 237.128 246.422C239.946 247.639 241.416 246.132 241.416 246.132C241.415 246.067 242.946 242.345 242.946 242.345Z" fill="#CF9166"/>
<path d="M244.238 238.867L237.847 236.221C237.847 236.221 237.237 237.466 236.713 238.523C236.636 238.676 238.358 239.714 238.544 239.828C240.006 240.724 241.63 241.16 243.313 241.403C243.723 240.269 244.238 238.867 244.238 238.867Z" fill="#CF9166"/>
<path d="M260.975 220.566C255.367 220.566 250.669 217.703 247.836 213.44H232.388C232.103 214.37 231.844 215.383 231.619 216.505C229.921 224.963 232.138 235.968 240.667 239.498C249.198 243.029 259.212 237.26 262.51 229.291C263.713 226.385 263.903 223.302 263.257 220.385C262.503 220.503 261.74 220.566 260.975 220.566Z" fill="#3E150D"/>
<path d="M260.949 228.416C262.633 223.912 262.458 218.929 258.784 215.39C256.916 213.589 254.562 212.342 252.159 211.393C249.785 210.454 247.21 209.567 244.639 209.504C240.033 209.392 239.76 211.687 237.678 215.574C237.472 215.955 234.003 216.796 233.824 217.188C233.413 218.09 232.97 218.962 232.624 219.894C231.846 221.99 231.318 224.196 231.18 226.435C231.012 229.15 231.462 231.921 232.778 234.352C233.525 235.735 234.533 236.972 235.706 238.026C237.645 239.765 239.696 240.923 242.25 241.469C243.981 241.839 245.767 241.962 247.516 241.732C250.418 241.352 253.041 239.981 255.141 238.009C256.906 236.349 258.306 234.327 259.401 232.18C260.001 231.004 260.535 229.779 260.919 228.517C260.929 228.483 260.937 228.449 260.949 228.416Z" fill="#EDAC7C"/>
<path d="M249.545 227.403C248.974 228.644 249.435 230.075 250.575 230.598C251.717 231.123 253.104 230.54 253.677 229.299C254.249 228.057 253.787 226.627 252.646 226.103C251.505 225.579 250.117 226.161 249.545 227.403Z" fill="#CF9166"/>
<path d="M249.72 226.506C249.148 227.747 249.61 229.178 250.75 229.703C251.892 230.227 253.28 229.644 253.851 228.403C254.424 227.163 253.963 225.731 252.822 225.207C251.681 224.684 250.291 225.265 249.72 226.506Z" fill="black"/>
<path d="M250.709 226.224C250.502 226.673 250.706 227.209 251.163 227.418C251.621 227.628 252.16 227.436 252.367 226.985C252.574 226.535 252.37 226.001 251.913 225.79C251.456 225.581 250.917 225.774 250.709 226.224Z" fill="white"/>
<path d="M236.68 222.647C236.109 223.889 236.57 225.319 237.711 225.843C238.852 226.367 240.24 225.783 240.811 224.544C241.383 223.303 240.922 221.871 239.782 221.347C238.641 220.825 237.252 221.405 236.68 222.647Z" fill="#CF9166"/>
<path d="M236.922 222.12C236.35 223.362 236.812 224.793 237.953 225.317C239.094 225.841 240.481 225.259 241.053 224.018C241.626 222.777 241.164 221.345 240.024 220.822C238.883 220.298 237.493 220.88 236.922 222.12Z" fill="black"/>
<path d="M237.911 221.839C237.705 222.288 237.907 222.823 238.365 223.033C238.822 223.244 239.362 223.05 239.57 222.6C239.776 222.15 239.574 221.615 239.115 221.405C238.658 221.196 238.119 221.389 237.911 221.839Z" fill="white"/>
<path d="M244.826 222.958C244.826 222.958 244.08 227.823 242.713 227.383C240.064 226.536 239.26 232.351 243.654 230.747C245.313 230.142 246.163 223.181 246.163 223.181L244.826 222.958Z" fill="#F48470"/>
<path d="M236.335 220.026C236.335 220.026 236.418 219.957 236.583 219.866C236.667 219.823 236.77 219.765 236.892 219.719C237.012 219.666 237.152 219.618 237.31 219.572C237.466 219.526 237.638 219.487 237.821 219.456C238.006 219.428 238.204 219.399 238.409 219.395C238.612 219.38 238.824 219.391 239.04 219.404C239.257 219.414 239.472 219.458 239.69 219.487C239.902 219.536 240.116 219.586 240.322 219.646C240.525 219.715 240.724 219.788 240.912 219.864C241.098 219.951 241.273 220.04 241.438 220.126C241.603 220.214 241.746 220.319 241.881 220.406C242.013 220.498 242.136 220.58 242.233 220.671C242.332 220.756 242.417 220.836 242.486 220.899C242.622 221.026 242.695 221.107 242.695 221.107C242.695 221.107 242.587 221.081 242.41 221.023C242.321 220.995 242.213 220.962 242.093 220.919C241.977 220.873 241.838 220.834 241.689 220.788C241.541 220.744 241.388 220.682 241.218 220.635C241.049 220.588 240.874 220.536 240.695 220.479C240.512 220.433 240.325 220.389 240.135 220.334C239.944 220.294 239.75 220.252 239.555 220.21C239.457 220.194 239.36 220.178 239.263 220.161C239.165 220.145 239.069 220.123 238.972 220.114C238.875 220.104 238.779 220.09 238.685 220.076C238.59 220.061 238.497 220.06 238.402 220.048C238.217 220.026 238.037 220.019 237.863 220.008C237.777 219.999 237.694 220.004 237.613 219.999C237.53 219.997 237.452 219.991 237.375 219.994C237.223 219.992 237.081 219.991 236.957 219.995C236.829 219.996 236.72 220.004 236.626 220.006C236.537 220.014 236.462 220.013 236.413 220.02C236.362 220.024 236.335 220.026 236.335 220.026Z" fill="black"/>
<path d="M256.051 224.006C256.051 224.006 256.004 223.909 255.89 223.757C255.831 223.684 255.763 223.589 255.673 223.496C255.583 223.399 255.474 223.297 255.352 223.189C255.23 223.084 255.089 222.978 254.933 222.873C254.774 222.772 254.608 222.664 254.423 222.577C254.243 222.479 254.046 222.4 253.844 222.323C253.644 222.242 253.429 222.195 253.22 222.131C253.005 222.087 252.791 222.045 252.577 222.015C252.363 221.993 252.151 221.979 251.948 221.97C251.745 221.973 251.548 221.981 251.362 221.992C251.177 222.004 251.004 222.039 250.844 222.064C250.685 222.093 250.539 222.118 250.414 222.16C250.287 222.197 250.178 222.234 250.09 222.264C249.911 222.324 249.812 222.366 249.812 222.366C249.812 222.366 249.922 222.388 250.107 222.408C250.199 222.42 250.311 222.433 250.438 222.443C250.564 222.45 250.706 222.472 250.861 222.491C251.014 222.512 251.179 222.519 251.353 222.546C251.526 222.572 251.706 222.599 251.893 222.621C252.078 222.654 252.27 222.691 252.464 222.72C252.655 222.76 252.848 222.803 253.043 222.846C253.139 222.871 253.234 222.896 253.33 222.921C253.424 222.947 253.521 222.965 253.614 222.999C253.706 223.029 253.798 223.057 253.89 223.082C253.984 223.107 254.071 223.145 254.159 223.174C254.337 223.23 254.504 223.298 254.667 223.359C254.749 223.386 254.823 223.425 254.899 223.454C254.976 223.485 255.05 223.514 255.118 223.546C255.256 223.608 255.387 223.665 255.499 223.721C255.614 223.774 255.711 223.826 255.793 223.867C255.873 223.911 255.941 223.943 255.983 223.968C256.028 223.992 256.051 224.006 256.051 224.006Z" fill="black"/>
<path d="M261.12 228.653C261.12 228.653 262.051 227.029 262.954 224.801C262.004 227.055 261.12 228.653 261.12 228.653Z" fill="#CF9166"/>
<path d="M262.365 212.727C261.447 212.819 260.492 212.798 259.574 212.817C257.37 212.865 255.164 212.801 252.959 212.841C251.647 212.865 250.337 212.923 249.029 213.025C248.917 213.034 245.881 213.344 245.976 213.305C243.714 213.614 241.46 214.008 239.206 214.354C238.332 214.488 237.473 214.561 236.624 214.6C239.175 215.14 242.479 214.983 244.783 214.759C244.659 214.797 244.549 214.826 244.415 214.872C242.034 215.681 244.002 218.33 248.179 220.111C253.959 222.575 259.198 221.599 259.198 221.599C259.198 221.599 258.264 223.295 258.061 226.282C257.923 228.327 258.429 230.831 258.761 232.208C258.916 232.841 259.032 233.237 259.032 233.237L258.272 234.604C258.272 234.604 259.953 231.763 262.95 228.065C269.197 220.361 268.539 215.89 267.333 213.716C265.64 213.627 263.957 213.308 262.365 212.727Z" fill="#361710"/>
<path d="M261.959 222.53C261.959 222.53 249.529 223.066 228.78 214.815C218.852 210.867 235.093 210.586 235.093 210.586L254.304 210.146L261.959 222.53Z" fill="#2D2C44"/>
<path d="M264.498 226.153C264.498 226.153 263.771 224.621 261.959 222.53C259.874 220.123 256.353 216.975 250.856 214.58C240.59 210.106 235.092 210.587 235.092 210.587C235.092 210.587 235.929 204.557 243.876 201.556C246.963 200.39 250.143 200.077 253.183 200.573C258.285 201.403 262.995 204.505 266.223 209.659C271.348 217.844 264.498 226.153 264.498 226.153Z" fill="#2D2C44"/>
<path d="M261.959 222.53C259.875 220.122 256.353 216.976 250.857 214.58C240.59 210.105 235.093 210.586 235.093 210.586C235.093 210.586 235.928 204.557 243.875 201.556C246.963 200.39 250.144 200.078 253.184 200.573C255.812 201.714 258.299 203.492 260.482 205.898C266.325 212.341 262.925 220.54 261.959 222.53Z" fill="#A7A6BB"/>
<path d="M260.141 231.33C260.141 231.33 251.626 234.687 248.141 237.251C247.226 237.926 246.735 240.212 243.746 240.212C240.044 240.212 240.626 238.444 238.2 236.769C236.843 235.832 233.964 234.882 233.148 233.705C231.353 231.118 231.366 222.799 231.366 222.799C231.366 222.799 228.898 229.25 230.778 235.372C231.586 238.002 232.612 244.842 241.743 245.18C250.381 245.499 251.728 242.84 253.413 241.104C255.098 239.369 260.141 231.33 260.141 231.33Z" fill="#361710"/>
<path d="M201.62 225.427L205.059 227.138C208.712 228.954 210.2 233.388 208.384 237.041L206.63 240.568C204.813 244.221 200.38 245.71 196.727 243.894L193.288 242.182C189.635 240.366 188.146 235.933 189.962 232.28L191.717 228.752C193.533 225.099 197.967 223.611 201.62 225.427Z" fill="#FCC822"/>
<path d="M210.082 248.159L208.887 245.531C208.589 244.651 208.479 243.718 208.562 242.793L209.093 236.882C209.164 236.111 208.924 235.342 208.428 234.746L203.667 229.026C203.364 228.661 202.791 228.706 202.546 229.113C202.402 229.356 202.419 229.661 202.59 229.885L204.797 232.778L202.751 231.153C202.355 230.838 201.766 231.005 201.593 231.48C201.49 231.764 201.57 232.082 201.794 232.283L204.989 235.168L201.972 233.209C201.557 232.938 200.996 233.126 200.827 233.593C200.7 233.943 200.842 234.334 201.164 234.523L203.935 236.137L200.981 235.151C200.624 235.032 200.238 235.218 200.11 235.572C199.992 235.896 200.131 236.258 200.435 236.42L202.135 237.326C203.263 237.929 203.871 239.193 203.635 240.45L203.082 243.4C202.769 245.073 203.105 246.801 204.022 248.234L205.521 250.574L210.082 248.159Z" fill="#EDAC7C"/>
<path d="M247.49 252.648L227.054 263.591C225.699 264.318 224.011 263.878 223.18 262.584L211.233 244.168L202.34 249.012L219.548 277.156C220.787 278.993 223.209 279.609 225.176 278.585L253.421 263.879C256.219 262.423 257.523 259.133 256.484 256.155C255.199 252.472 250.929 250.807 247.49 252.648Z" fill="#A7A6BB"/>
<path d="M235.428 289.071C235.428 300.204 226.403 309.231 215.267 309.231L195.774 307.491L181.848 306.247V302.997C181.848 295.305 188.083 289.071 195.774 289.071H235.428Z" fill="#2D2C44"/>
<path d="M195.374 289.072V343.166L183.157 340.639L181.598 302.998C181.598 295.306 187.501 289.072 195.374 289.072Z" fill="#2D2C44"/>
<path d="M174.509 333.461C168.842 333.592 164.289 338.223 164.289 343.921C164.289 344.453 164.72 344.885 165.252 344.885H174.509V333.461Z" fill="white"/>
<path d="M181.936 323.869V332.492C181.936 333.023 181.504 333.455 180.973 333.455H174.755C174.435 333.455 174.119 333.47 173.806 333.498V341.892H195.873V323.869H181.936Z" fill="#361710"/>
<path d="M191.734 330.537C191.734 332.151 190.424 333.461 188.81 333.461C187.194 333.461 185.885 332.151 185.885 330.537C185.885 328.921 187.194 327.611 188.81 327.611C190.424 327.611 191.734 328.921 191.734 330.537Z" fill="white"/>
<path d="M164.904 340.382C164.507 341.488 164.288 342.679 164.288 343.921C164.288 344.453 164.72 344.884 165.252 344.884H194.91C195.442 344.884 195.874 344.453 195.874 343.921V340.382H164.904Z" fill="white"/>
<path d="M255.067 132.328C264.002 136.771 269.171 143.339 270.57 152.028C271.7 158.898 270.57 165.741 267.179 172.561C261.506 183.967 250.947 192.245 235.5 197.397C230.114 199.192 226.12 202.413 223.517 207.057C222.609 208.586 221.673 210.319 220.708 212.26C218.891 215.913 214.457 217.402 210.804 215.585L207.364 213.874C203.712 212.058 202.223 207.624 204.039 203.972C209.215 193.565 215.616 187.107 223.247 184.593C231.491 181.873 238.075 178.145 242.999 173.406C245.841 170.639 248.184 167.405 250.026 163.701C251.926 159.879 252.564 156.457 251.941 153.434C251.315 149.971 249.094 147.582 245.274 146.268C241.719 145.014 238.153 146.137 234.578 149.639C234.401 149.807 234.223 149.981 234.048 150.159C231.479 152.769 227.374 153.081 224.427 150.907L221.539 148.776C217.962 146.138 217.498 140.949 220.563 137.732C223.609 134.535 227.106 132.091 231.057 130.399C235.339 128.569 240.243 128.147 245.767 129.133C248.673 129.626 251.774 130.69 255.067 132.328Z" fill="#FCC822"/>
<path d="M240.755 237.594C240.996 237.594 241.203 237.43 241.264 237.197C241.504 236.267 242.343 235.578 243.348 235.578C244.354 235.578 245.192 236.267 245.432 237.197C245.492 237.43 245.701 237.594 245.942 237.594C246.28 237.594 246.546 237.278 246.464 236.949C246.112 235.552 244.855 234.516 243.348 234.516C241.841 234.516 240.584 235.552 240.233 236.949C240.15 237.278 240.416 237.594 240.755 237.594Z" fill="#F05B4E"/>
<path d="M250.113 236.663C249.622 234.329 247.97 232.4 245.755 231.557C245.339 231.399 244.866 231.474 244.536 231.772C244.169 232.102 243.77 232.455 243.348 232.455C242.905 232.455 242.486 232.083 242.105 231.738C241.779 231.444 241.318 231.362 240.904 231.511C238.909 232.227 237.32 233.829 236.632 235.87C236.419 236.502 236.729 237.234 237.367 237.426C237.993 237.613 238.611 237.262 238.799 236.676C239.438 234.682 241.348 233.29 243.535 233.416C245.723 233.542 247.46 235.145 247.865 237.199C247.967 237.714 248.4 238.096 248.923 238.126H248.924C249.693 238.126 250.272 237.415 250.113 236.663Z" fill="#361710"/>
<path d="M205.562 289.158C205.562 289.158 220.174 289.548 226.536 294.947C232.898 300.345 234.345 300.441 234.345 300.441C234.345 300.441 235.268 289.578 238.711 282.525C242.155 275.472 237.815 277.402 236.948 278.462C236.08 279.522 225.187 288.673 225.187 288.673L223.032 289.072L205.562 289.158Z" fill="#727293"/>
<path d="M292.206 182.303C292.206 182.303 291.244 185.995 292.828 186.837C294.414 187.68 298.466 188.122 298.507 186.837C298.546 185.553 299.67 184.309 297.664 183.426C295.657 182.544 293.29 182.303 293.29 182.303H292.206Z" fill="#C9BDBD"/>
<path d="M330.997 139.018C330.956 139.026 330.914 139.034 330.873 139.044C330.546 139.114 330.354 139.18 330.354 139.18V139.195C330.277 139.223 330.198 139.248 330.123 139.282C325.903 141.168 325.903 145.028 325.903 145.028L328.507 152.75C328.507 152.75 329.235 152.785 330.325 152.685L330.249 187.655L330.627 187.872C333.453 189.494 336.927 189.501 339.758 187.888L340.17 187.655C340.17 187.655 340.676 173.606 340.863 154.513C341.023 138.26 333.3 138.567 330.997 139.018Z" fill="#161616"/>
<path d="M324.852 144.531L326.412 142.474C326.61 142.213 326.976 142.152 327.245 142.337C328.949 143.508 334.503 147.758 333.745 152.875L324.852 144.531Z" fill="white"/>
<path d="M318.304 177.136C318.307 177.115 319.898 176.937 319.994 176.92C321.386 176.664 322.752 176.245 324.048 175.679C328.055 173.927 331.136 170.694 332.661 166.587C333.754 163.636 334.062 160.444 333.942 157.317C333.768 152.731 332.709 147.719 328.67 144.915C325.23 142.529 323.545 143.254 323.545 143.254C323.545 143.254 318.306 177.124 318.304 177.136Z" fill="#161616"/>
<path d="M319.24 171.261L312.234 170.816C312.234 170.816 311.27 181.77 311.243 181.769C311.243 181.769 311.619 183.989 314.725 184.235C317.831 184.479 318.743 182.243 318.743 182.243C318.72 182.181 319.24 171.261 319.24 171.261Z" fill="#F8D0B7"/>
<path d="M314.976 179.748C312.676 179.566 311.842 178.761 311.564 178.355C311.854 175.141 312.234 170.816 312.234 170.816L319.24 171.261C319.24 171.261 319.041 175.444 318.895 178.648C318.704 178.897 317.724 179.964 314.976 179.748Z" fill="#EFBDAC"/>
<path d="M316.244 174.763L309.237 174.319C309.237 174.319 309.059 175.715 308.903 176.901C308.88 177.074 310.874 177.506 311.091 177.554C312.788 177.934 314.491 177.821 316.187 177.502C316.209 176.278 316.244 174.763 316.244 174.763Z" fill="#CF9166"/>
<path d="M300.775 154.704C300.971 153.296 301.12 152.103 302.253 150.772C305.022 147.52 309.442 145.663 313.684 145.67C320.067 145.681 326.684 148.128 328.39 154.804C328.975 157.09 328.989 159.488 328.762 161.838C328.407 165.543 327.415 169.288 325.179 172.264C322.5 175.831 318.073 178.016 313.613 177.975C306.801 177.912 301.35 174.252 299.518 168.31C298.199 164.033 299.431 160.683 300.449 156.524C300.609 155.868 300.696 155.269 300.775 154.704Z" fill="#F8D0B7"/>
<path d="M331.137 162.611C331.153 162.631 331.172 162.659 331.172 162.659C331.172 162.659 331.169 162.63 331.162 162.575C331.154 162.522 331.142 162.439 331.108 162.337C331.072 162.237 331.026 162.112 330.931 161.978C330.839 161.845 330.707 161.694 330.499 161.57C330.397 161.506 330.276 161.45 330.143 161.403C330.076 161.382 330.005 161.361 329.932 161.348L329.877 161.336L329.815 161.327L329.72 161.313C329.661 161.302 329.583 161.297 329.501 161.293C329.418 161.287 329.338 161.286 329.263 161.289C329.184 161.29 329.105 161.292 329.026 161.301C328.948 161.309 328.868 161.317 328.79 161.332C328.7 161.347 328.612 161.372 328.523 161.394C328.53 160.795 328.51 160.196 328.451 159.602C329.227 159.492 330.096 159.568 331.059 159.972C335.119 161.677 333.109 169.46 326.703 169.784C326.869 169.44 327.018 169.091 327.157 168.737C330.588 167.742 331.851 164.362 331.137 162.611Z" fill="#F8D0B7"/>
<path d="M329.146 161.824C329.204 161.812 329.261 161.805 329.319 161.798C329.377 161.788 329.432 161.783 329.483 161.781C329.533 161.777 329.585 161.773 329.654 161.776L329.751 161.777L329.775 161.778H329.787H329.793C329.788 161.777 329.809 161.779 329.781 161.776H329.784L329.821 161.779C329.873 161.782 329.92 161.789 329.969 161.795C330.065 161.81 330.157 161.833 330.242 161.865C330.586 161.996 330.818 162.225 330.959 162.387C331.029 162.469 331.084 162.536 331.118 162.586C331.13 162.602 331.129 162.6 331.137 162.611C331.851 164.362 330.588 167.742 327.157 168.736C327.811 167.07 328.197 165.307 328.39 163.552C328.445 163.049 328.485 162.544 328.508 162.037C328.662 161.972 328.816 161.902 328.974 161.863C329.031 161.845 329.089 161.835 329.146 161.824Z" fill="#FFB7A1"/>
<path d="M329.027 161.301C329.105 161.291 329.184 161.288 329.262 161.288C329.339 161.285 329.417 161.286 329.5 161.292C329.583 161.296 329.662 161.302 329.72 161.313L329.814 161.327L329.876 161.336L329.931 161.348C330.005 161.361 330.076 161.381 330.143 161.403C330.276 161.449 330.396 161.505 330.499 161.569C330.707 161.694 330.839 161.844 330.932 161.978C331.026 162.111 331.073 162.236 331.107 162.337C331.141 162.438 331.154 162.521 331.162 162.575C331.169 162.629 331.172 162.658 331.172 162.658C331.172 162.658 331.152 162.631 331.137 162.611C331.129 162.6 331.13 162.602 331.118 162.585C331.084 162.536 331.029 162.469 330.96 162.387C330.818 162.225 330.586 161.996 330.242 161.865C330.158 161.833 330.064 161.81 329.969 161.795C329.92 161.789 329.872 161.781 329.822 161.779L329.784 161.776H329.782C329.809 161.779 329.787 161.777 329.793 161.778H329.787H329.775L329.751 161.777L329.655 161.775C329.584 161.772 329.532 161.777 329.482 161.781C329.431 161.783 329.378 161.788 329.318 161.798C329.261 161.805 329.204 161.812 329.146 161.824C329.089 161.835 329.031 161.845 328.974 161.863C328.816 161.902 328.662 161.972 328.507 162.037C328.517 161.824 328.521 161.609 328.524 161.394C328.612 161.372 328.7 161.346 328.79 161.331C328.868 161.317 328.948 161.309 329.027 161.301Z" fill="#FFA792"/>
<path d="M310.623 161.587C310.623 161.587 310.801 164.65 309.381 164.322C306.63 163.69 306.31 169.639 310.618 167.645C312.244 166.893 311.994 161.701 311.994 161.701L310.623 161.587Z" fill="#F48470"/>
<path d="M305.876 169.712C305.795 170.989 304.678 171.957 303.38 171.874C302.082 171.791 301.094 170.691 301.174 169.415C301.256 168.138 302.373 167.171 303.671 167.253C304.969 167.336 305.957 168.436 305.876 169.712Z" fill="#FFB7A1"/>
<path d="M322.829 169.295C322.747 170.571 321.63 171.539 320.33 171.456C319.034 171.374 318.047 170.274 318.127 168.998C318.208 167.722 319.325 166.755 320.623 166.837C321.921 166.919 322.91 168.02 322.829 169.295Z" fill="#FFB7A1"/>
<path d="M301.695 159.726C301.695 159.726 301.761 159.639 301.905 159.513C301.977 159.45 302.066 159.371 302.177 159.297C302.284 159.219 302.412 159.139 302.557 159.059C302.702 158.978 302.864 158.9 303.038 158.829C303.215 158.76 303.403 158.687 303.606 158.637C303.805 158.577 304.016 158.539 304.232 158.504C304.449 158.465 304.672 158.461 304.894 158.441C305.115 158.442 305.338 158.443 305.556 158.456C305.773 158.479 305.986 158.507 306.188 158.539C306.391 158.584 306.585 158.634 306.767 158.681C306.951 158.733 307.116 158.803 307.269 158.861C307.421 158.921 307.561 158.974 307.678 159.043C307.795 159.105 307.897 159.165 307.979 159.212C308.142 159.307 308.232 159.371 308.232 159.371C308.232 159.371 308.119 159.369 307.931 159.352C307.837 159.344 307.724 159.335 307.594 159.319C307.468 159.3 307.322 159.293 307.164 159.28C307.008 159.27 306.842 159.243 306.665 159.234C306.487 159.225 306.302 159.215 306.112 159.197C305.92 159.192 305.725 159.191 305.525 159.18C305.327 159.183 305.126 159.184 304.924 159.187C304.823 159.192 304.722 159.198 304.623 159.204C304.522 159.21 304.422 159.209 304.325 159.222C304.226 159.233 304.128 159.242 304.032 159.25C303.933 159.254 303.841 159.276 303.746 159.286C303.557 159.305 303.377 159.338 303.203 159.364C303.116 159.376 303.034 159.4 302.953 159.413C302.871 159.428 302.791 159.441 302.716 159.461C302.566 159.493 302.426 159.524 302.303 159.556C302.177 159.585 302.07 159.618 301.978 159.641C301.892 159.669 301.817 159.685 301.771 159.703C301.72 159.718 301.695 159.726 301.695 159.726Z" fill="#161616"/>
<path d="M320.296 158.707C320.296 158.707 320.227 158.623 320.08 158.5C320.004 158.442 319.914 158.364 319.803 158.294C319.691 158.219 319.559 158.143 319.414 158.067C319.268 157.992 319.103 157.92 318.924 157.854C318.744 157.791 318.555 157.724 318.351 157.682C318.151 157.627 317.938 157.596 317.721 157.568C317.503 157.536 317.28 157.539 317.059 157.526C316.835 157.534 316.615 157.543 316.397 157.564C316.18 157.593 315.968 157.628 315.765 157.668C315.565 157.719 315.373 157.774 315.192 157.828C315.012 157.884 314.849 157.961 314.697 158.022C314.547 158.088 314.41 158.148 314.296 158.218C314.18 158.284 314.08 158.347 314.001 158.397C313.838 158.499 313.751 158.564 313.751 158.564C313.751 158.564 313.863 158.56 314.051 158.536C314.145 158.526 314.259 158.513 314.387 158.493C314.513 158.468 314.658 158.457 314.815 158.439C314.97 158.425 315.137 158.393 315.314 158.377C315.491 158.363 315.675 158.346 315.864 158.322C316.055 158.312 316.253 158.304 316.452 158.286C316.65 158.281 316.85 158.278 317.052 158.273C317.153 158.275 317.254 158.277 317.354 158.28C317.452 158.283 317.552 158.279 317.652 158.29C317.75 158.298 317.849 158.303 317.945 158.306C318.043 158.309 318.138 158.326 318.232 158.333C318.422 158.347 318.602 158.374 318.778 158.396C318.865 158.402 318.947 158.425 319.029 158.435C319.112 158.447 319.192 158.458 319.267 158.474C319.418 158.503 319.56 158.528 319.683 158.557C319.81 158.581 319.918 158.61 320.009 158.631C320.098 158.657 320.172 158.67 320.221 158.686C320.27 158.698 320.296 158.707 320.296 158.707Z" fill="#050607"/>
<path d="M315.841 161.711C315.604 162.586 316.124 163.473 317 163.692C317.876 163.911 318.777 163.38 319.012 162.504C319.249 161.629 318.731 160.741 317.854 160.522C316.978 160.303 316.076 160.835 315.841 161.711Z" fill="#050607"/>
<path d="M316.5 161.417C316.415 161.734 316.631 162.062 316.982 162.15C317.333 162.239 317.688 162.053 317.773 161.735C317.858 161.419 317.642 161.09 317.291 161.003C316.94 160.914 316.586 161.1 316.5 161.417Z" fill="white"/>
<path d="M306.528 161.329C306.764 162.204 306.244 163.092 305.368 163.311C304.492 163.53 303.591 162.999 303.355 162.123C303.119 161.248 303.638 160.36 304.514 160.141C305.39 159.922 306.292 160.454 306.528 161.329Z" fill="#050607"/>
<path d="M305.867 161.036C305.953 161.353 305.737 161.681 305.386 161.769C305.034 161.858 304.68 161.672 304.595 161.354C304.509 161.038 304.725 160.709 305.076 160.622C305.427 160.533 305.782 160.72 305.867 161.036Z" fill="white"/>
<path d="M321.716 154.212C321.716 154.212 327.21 171.029 322.183 176.057C322.183 176.057 329.486 172.054 330.15 153.702L321.716 154.212Z" fill="#161616"/>
<path d="M329.123 157.716C331.01 157.412 331.141 149.364 330.855 148.267C329.871 144.495 324.485 142.177 321.197 140.944C316.018 139.002 309.507 138.683 304.822 142.048C302.312 143.852 301.08 146.39 299.909 149.157C299.693 149.667 297.353 156.099 297.339 156.099C297.34 156.099 315.174 157.007 315.034 156.999L316.719 157.085C316.719 157.085 327.796 157.928 329.123 157.716Z" fill="#161616"/>
<path d="M343.136 207.751H343.02C341.657 207.757 340.33 208.236 339.154 208.939C340.404 210.576 341.807 212.083 343.612 213.132C343.731 213.201 343.846 213.261 343.958 213.317C344.19 213.049 344.408 212.769 344.6 212.469C345.853 210.531 346.031 207.795 343.136 207.751Z" fill="#E8B79E"/>
<path d="M303.61 257.403C303.61 257.403 304.504 284.849 304.563 287.404C304.623 289.959 308.176 312.833 308.606 318.438C309.036 324.043 307.497 335.558 306.25 340.149L304.736 344.044C304.736 344.044 309.592 345.987 311.48 345.141C314.45 343.809 315.046 339.09 315.794 336.314C316.586 333.37 317.174 330.321 317.048 327.258C316.926 324.314 315.308 322.078 314.692 319.271C313.013 311.625 315.872 303.716 316.28 296.067C316.645 289.242 315.727 282.434 314.706 275.702C313.753 269.424 316.66 263.864 316.359 257.654C316.359 257.654 304.779 249.405 303.48 256.103" fill="#EFC8B1"/>
<path d="M305.715 341.525C305.64 341.862 306.631 342.22 306.856 342.322C308.492 343.063 311.086 343.778 312.433 342.118C314.078 340.096 314.456 336.589 315.153 334.149C315.942 331.386 316.762 328.209 316.518 325.307L316.403 323.94C316.403 323.94 320.251 326.291 320.009 329.554C319.766 332.819 316.484 338.291 316.279 341.706C316.152 343.809 315.129 345.901 313.411 347.151C310.784 349.061 306.248 348.925 303.44 347.485C302.402 346.952 301.583 344.477 302.943 343.852C304.639 343.072 307.382 335.101 307.096 334.833L306.25 340.149C306.25 340.149 305.715 341.522 305.715 341.525Z" fill="#122738"/>
<path d="M319.827 330.361C319.827 330.361 318.736 337.387 319.261 341.319L318.117 341.696L316.976 336.425L319.827 330.361Z" fill="#312E2F"/>
<path d="M329.653 330.362C329.653 330.362 328.732 340.88 329.258 344.813L327.585 344.859L326.802 336.426L329.653 330.362Z" fill="#0C1B26"/>
<path d="M312.314 257.403C312.314 257.403 314.331 284.849 314.39 287.404C314.449 289.959 318.002 312.833 318.432 318.438C318.863 324.043 317.324 335.558 316.077 340.149L314.563 344.044C314.563 344.044 319.42 345.987 321.307 345.141C324.276 343.809 324.872 339.09 325.62 336.314C326.413 333.37 327 330.321 326.875 327.258C326.754 324.314 325.135 322.078 324.518 319.271C322.84 311.625 325.699 303.716 326.107 296.067C326.471 289.242 325.554 282.434 324.533 275.702C323.58 269.424 326.486 263.864 326.186 257.654C326.186 257.654 313.483 249.405 312.183 256.103" fill="#F8D0B7"/>
<path d="M315.541 341.525C315.466 341.862 316.458 342.22 316.683 342.322C318.318 343.063 320.913 343.778 322.26 342.118C323.906 340.096 324.282 336.589 324.979 334.149C325.768 331.386 326.589 328.209 326.345 325.307L326.229 323.94C326.229 323.94 330.077 326.291 329.836 329.554C329.593 332.819 326.311 338.291 326.105 341.706C325.979 343.809 324.956 345.901 323.237 347.151C320.611 349.061 316.075 348.925 313.267 347.485C312.228 346.952 311.409 344.477 312.77 343.852C314.466 343.072 317.209 335.101 316.923 334.833L316.076 340.149C316.076 340.149 315.542 341.522 315.541 341.525Z" fill="#122738"/>
<path d="M325.152 198.435C326.108 193.923 329.448 189.31 329.653 188.297C324.386 183.037 319.687 181.168 318.581 180.824L312.033 180.852C310.281 181.565 308.516 182.242 306.758 182.939C306.098 183.2 305.481 183.338 305.064 183.913C304.554 184.617 304.294 185.823 303.958 186.639C303.038 188.869 302.092 191.133 301.638 193.523C301.345 195.066 301.71 196.728 302.335 198.435H325.152Z" fill="#F8D0B7"/>
<path d="M331.71 232.904C329.632 226.955 326.827 221.211 325.778 214.954C322.134 216.499 308.276 216.028 305.575 213.638C304.984 221.412 300.997 228.844 299.104 236.412C297.921 241.142 296.933 245.952 296.755 250.837C296.571 255.948 298.413 271.459 298.787 277.169C313.796 286.88 330.852 277.566 331.533 275.804C335.099 266.571 334.925 252.759 334.043 242.812C333.739 239.375 332.831 236.11 331.71 232.904Z" fill="#122738"/>
<path d="M299.104 236.412C299.025 236.725 298.951 237.04 298.874 237.354C304.208 240.208 324.995 241.925 332.848 236.501C332.511 235.29 332.126 234.092 331.71 232.903C329.713 227.19 327.051 221.661 325.914 215.689L322.736 215.617C319.452 215.997 314.719 215.904 310.984 215.351L306.621 215.252C306.621 215.252 305.049 227.164 299.987 233.31C299.664 234.343 299.363 235.376 299.104 236.412Z" fill="#0B1C28"/>
<path d="M311.553 192.195C311.539 191.97 311.512 191.752 311.482 191.532C311.477 191.496 311.471 191.461 311.465 191.423C311.081 188.852 309.61 186.701 307.719 185.266C305.345 183.549 302.816 182.069 300.327 180.53C295.329 177.497 291.044 175.056 285.988 172.118C284.42 169.226 282.829 166.351 281.172 163.523C280.335 162.109 279.499 160.697 278.558 159.355C277.499 158.12 276.727 156.689 275.971 155.215C274.445 152.299 273.129 149.188 271.029 146.671C269.881 145.351 268.632 144.149 267.326 143.016C267.444 143.221 271.399 150.119 270.994 157.032C270.994 157.032 270.986 157.034 270.98 157.036C271.455 157.315 271.926 157.609 272.401 157.888L272.913 158.198L273.169 158.354C273.264 158.403 273.345 158.461 273.343 158.513C273.476 158.79 273.608 159.258 273.725 159.645C274.196 161.282 274.682 162.924 275.257 164.519C276.403 167.705 277.839 170.774 279.828 173.396C280.821 174.697 281.938 175.918 283.213 176.912C284.465 177.925 285.736 178.912 287.016 179.887C289.58 181.833 291.44 183.185 294.122 184.962C296.807 186.734 299.548 188.426 302.408 189.918C305.297 191.353 308.251 192.704 311.568 193.208C311.57 193.15 311.563 193.095 311.565 193.037C311.574 192.876 311.58 192.586 311.553 192.195Z" fill="#EFC8B1"/>
<path d="M269.135 146.694C269.045 147.689 268.491 150.231 268.115 151.135C267.4 151.027 266.7 150.732 266.08 150.359C265.391 149.967 264.861 149.388 264.197 148.877C263.863 148.635 263.502 148.42 263.092 148.28C262.68 148.171 262.214 148.037 261.669 148.384C261.606 148.433 261.517 148.507 261.477 148.649C261.424 148.797 261.465 148.841 261.465 148.938C261.501 149.071 261.551 149.181 261.605 149.278C261.715 149.472 261.835 149.646 261.964 149.809C262.219 150.139 262.494 150.443 262.774 150.739C263.872 151.936 265.111 152.99 266.248 154.114L267.087 154.99C267.39 155.291 267.744 155.521 268.111 155.713C268.845 156.1 269.632 156.335 270.344 156.672C270.599 156.802 270.848 156.954 271.098 157.104V149.485C270.127 149.196 269.991 147.188 269.135 146.694Z" fill="#EFC8B1"/>
<path d="M294.147 176.854C294.147 176.854 295.477 179.013 295.056 183.346C294.635 187.68 292.828 186.838 292.828 186.838C292.828 186.838 297.343 190.268 301.857 192.676C306.372 195.084 306.191 183.587 306.191 183.587C306.191 183.587 294.623 175.418 294.147 176.854Z" fill="white"/>
<path d="M305.486 214.944C305.47 215.252 305.334 215.641 305.551 215.791C312.486 220.56 325.934 215.585 325.838 214.994C325.372 212.149 325.296 209.21 325.843 206.37C327.073 199.975 331.793 193.777 329.728 187.046C329.72 187.022 329.713 186.998 329.704 186.975C329.009 184.901 322.159 182.497 321.562 182.111C321.763 182.638 321.21 183.245 321.021 183.482C320.087 184.644 318.618 185.369 317.216 185.781C315.588 186.26 313.88 186.454 312.185 186.388C311.235 186.351 310.281 186.229 309.349 186.039C308.777 185.922 308.071 185.74 307.69 185.27C306.989 184.406 307.652 183.149 308.085 182.313C308.085 182.313 307.256 182.624 306.192 182.644C304.873 182.669 300.835 179.991 300.835 179.991C300.092 182.28 301.229 191.387 300.344 193.604C299.787 195 299.496 196.536 299.768 198.015C300.209 200.403 301.997 202.22 302.763 204.483C303.734 207.356 305.652 211.815 305.486 214.944Z" fill="white"/>
<path d="M305.229 212.203C305.229 212.203 303.284 226.967 296.743 232.103C291.846 235.948 322.509 240.316 331.845 233.171C332.243 232.866 332.301 232.287 331.977 231.905C331.462 231.299 330.669 230.043 329.652 227.436C327.76 222.592 325.551 212.663 325.551 212.663L305.229 212.203Z" fill="white"/>
<path d="M346.36 213.177C345.862 213.801 345.001 213.939 343.612 213.131C341.735 212.04 340.29 210.455 339.002 208.742C337.361 206.558 335.409 204.62 333.541 202.62C331.02 199.918 328.374 197.264 326.06 194.38C324.169 192.026 322.662 190.237 323.545 186.951C323.679 186.45 323.874 185.952 324.218 185.559C324.738 184.961 325.564 184.807 326.317 184.896C328.196 185.122 329.452 186.444 330.631 187.76C331.859 189.13 333.223 190.393 334.509 191.71C337.256 194.526 339.941 197.426 342.205 200.647C343.682 202.748 345.255 204.825 346.279 207.199C347.318 209.613 347.375 211.905 346.36 213.177Z" fill="#EFC8B1"/>
<path d="M343.136 207.751H343.02C341.657 207.757 340.33 208.236 339.154 208.939C340.404 210.576 341.807 212.083 343.612 213.132C343.731 213.201 343.846 213.261 343.958 213.317C344.19 213.049 344.408 212.769 344.6 212.469C345.853 210.531 346.031 207.795 343.136 207.751Z" fill="#E8B79E"/>
<path d="M344.429 208.361C344.391 208.366 344.352 208.372 344.314 208.377C342.798 208.607 341.412 209.42 340.269 210.448C337.84 212.632 335.84 215.501 333.665 217.948C331.971 219.854 330.275 221.966 328.402 223.815C328.519 223.94 328.619 224.08 328.693 224.243C329.425 225.863 329.698 226.868 330.705 228.333C332.53 225.056 340.165 220.311 344.411 215.782C345.25 214.887 346.053 213.933 346.563 212.817C347.521 210.718 347.3 207.985 344.429 208.361Z" fill="#EFC8B1"/>
<path d="M328.295 226.46C328.292 226.464 326.229 228.847 325.831 228.807C325.433 228.768 324.909 228.257 324.909 228.257L327.615 224.734C327.615 224.734 324.761 227.438 324.067 227.483C323.373 227.529 322.855 226.961 322.855 226.961L326.51 223.131C326.51 223.131 324.101 225.993 323.271 226.254C322.44 226.517 321.803 225.994 321.803 225.994L325.333 221.693L325.208 222.37C325.208 222.37 323.468 223.69 322.791 223.565C322.115 223.44 321.58 223.042 321.58 223.042C321.58 223.042 323.433 221.733 324.389 220.794C325.343 219.856 326.304 220.009 326.304 220.009C328.014 221.423 329.076 223.58 330.167 225.501C331.01 226.985 331.033 229.829 331.033 229.829C331.033 229.829 330.503 230.79 328.295 226.46Z" fill="#F8D0B7"/>
<path d="M302.382 154.042C302.382 154.042 299.348 159.88 299.518 168.311C299.518 168.311 293.841 160.883 301.25 150.271L302.382 154.042Z" fill="#161616"/>
<path d="M332.159 202.889C332.159 202.889 338.914 201.926 340.281 196.869C340.281 196.869 330.503 185.642 326.282 184.253C322.062 182.864 320.216 187.72 322.223 191.131C324.229 194.542 332.159 202.889 332.159 202.889Z" fill="white"/>
<path d="M300.43 193.343C300.43 193.343 300.723 191.876 301.896 190.251C303.07 188.626 300.716 189.629 298.438 190.684C298.438 190.684 300.446 191.803 300.443 192.526C300.441 192.932 300.43 193.343 300.43 193.343Z" fill="#E1E4E5"/>
<path d="M310.967 171.814C311.208 171.814 311.415 171.651 311.476 171.417C311.716 170.487 312.554 169.799 313.56 169.799C314.566 169.799 315.404 170.487 315.644 171.417C315.705 171.651 315.913 171.814 316.154 171.814C316.492 171.814 316.758 171.499 316.676 171.17C316.324 169.773 315.067 168.737 313.56 168.737C312.053 168.737 310.797 169.773 310.445 171.17C310.362 171.499 310.628 171.814 310.967 171.814Z" fill="#F05B4E"/>
<defs>
<filter id="filter0_d_104_126" x="179.799" y="112.454" width="40.2747" height="40.2743" filterUnits="userSpaceOnUse" color-interpolation-filters="sRGB">
<feFlood flood-opacity="0" result="BackgroundImageFix"/>
<feColorMatrix in="SourceAlpha" type="matrix" values="0 0 0 0 0 0 0 0 0 0 0 0 0 0 0 0 0 0 127 0" result="hardAlpha"/>
<feMorphology radius="7.02035" operator="erode" in="SourceAlpha" result="effect1_dropShadow_104_126"/>
<feOffset dy="10.5305"/>
<feGaussianBlur stdDeviation="11.7006"/>
<feColorMatrix type="matrix" values="0 0 0 0 0.243137 0 0 0 0 0.741176 0 0 0 0 1 0 0 0 0.45 0"/>
<feBlend mode="normal" in2="BackgroundImageFix" result="effect1_dropShadow_104_126"/>
<feBlend mode="normal" in="SourceGraphic" in2="effect1_dropShadow_104_126" result="shape"/>
</filter>
<filter id="filter1_d_104_126" x="383.152" y="209.122" width="40.2747" height="40.2743" filterUnits="userSpaceOnUse" color-interpolation-filters="sRGB">
<feFlood flood-opacity="0" result="BackgroundImageFix"/>
<feColorMatrix in="SourceAlpha" type="matrix" values="0 0 0 0 0 0 0 0 0 0 0 0 0 0 0 0 0 0 127 0" result="hardAlpha"/>
<feMorphology radius="7.02035" operator="erode" in="SourceAlpha" result="effect1_dropShadow_104_126"/>
<feOffset dy="10.5305"/>
<feGaussianBlur stdDeviation="11.7006"/>
<feColorMatrix type="matrix" values="0 0 0 0 0.243137 0 0 0 0 0.741176 0 0 0 0 1 0 0 0 0.45 0"/>
<feBlend mode="normal" in2="BackgroundImageFix" result="effect1_dropShadow_104_126"/>
<feBlend mode="normal" in="SourceGraphic" in2="effect1_dropShadow_104_126" result="shape"/>
</filter>
<filter id="filter2_d_104_126" x="303.012" y="285.254" width="40.2747" height="40.2743" filterUnits="userSpaceOnUse" color-interpolation-filters="sRGB">
<feFlood flood-opacity="0" result="BackgroundImageFix"/>
<feColorMatrix in="SourceAlpha" type="matrix" values="0 0 0 0 0 0 0 0 0 0 0 0 0 0 0 0 0 0 127 0" result="hardAlpha"/>
<feMorphology radius="7.02035" operator="erode" in="SourceAlpha" result="effect1_dropShadow_104_126"/>
<feOffset dy="10.5305"/>
<feGaussianBlur stdDeviation="11.7006"/>
<feColorMatrix type="matrix" values="0 0 0 0 0.243137 0 0 0 0 0.741176 0 0 0 0 1 0 0 0 0.45 0"/>
<feBlend mode="normal" in2="BackgroundImageFix" result="effect1_dropShadow_104_126"/>
<feBlend mode="normal" in="SourceGraphic" in2="effect1_dropShadow_104_126" result="shape"/>
</filter>
<filter id="filter3_d_104_126" x="160.265" y="279.243" width="48.2886" height="48.289" filterUnits="userSpaceOnUse" color-interpolation-filters="sRGB">
<feFlood flood-opacity="0" result="BackgroundImageFix"/>
<feColorMatrix in="SourceAlpha" type="matrix" values="0 0 0 0 0 0 0 0 0 0 0 0 0 0 0 0 0 0 127 0" result="hardAlpha"/>
<feMorphology radius="7.02035" operator="erode" in="SourceAlpha" result="effect1_dropShadow_104_126"/>
<feOffset dy="10.5305"/>
<feGaussianBlur stdDeviation="11.7006"/>
<feColorMatrix type="matrix" values="0 0 0 0 0.243137 0 0 0 0 0.741176 0 0 0 0 1 0 0 0 0.45 0"/>
<feBlend mode="normal" in2="BackgroundImageFix" result="effect1_dropShadow_104_126"/>
<feBlend mode="normal" in="SourceGraphic" in2="effect1_dropShadow_104_126" result="shape"/>
</filter>
<filter id="filter4_d_104_126" x="298.505" y="256.203" width="41.7772" height="41.7772" filterUnits="userSpaceOnUse" color-interpolation-filters="sRGB">
<feFlood flood-opacity="0" result="BackgroundImageFix"/>
<feColorMatrix in="SourceAlpha" type="matrix" values="0 0 0 0 0 0 0 0 0 0 0 0 0 0 0 0 0 0 127 0" result="hardAlpha"/>
<feMorphology radius="7.02035" operator="erode" in="SourceAlpha" result="effect1_dropShadow_104_126"/>
<feOffset dy="10.5305"/>
<feGaussianBlur stdDeviation="11.7006"/>
<feColorMatrix type="matrix" values="0 0 0 0 0.243137 0 0 0 0 0.741176 0 0 0 0 1 0 0 0 0.45 0"/>
<feBlend mode="normal" in2="BackgroundImageFix" result="effect1_dropShadow_104_126"/>
<feBlend mode="normal" in="SourceGraphic" in2="effect1_dropShadow_104_126" result="shape"/>
</filter>
<filter id="filter5_d_104_126" x="57.0856" y="255.702" width="41.7772" height="41.7772" filterUnits="userSpaceOnUse" color-interpolation-filters="sRGB">
<feFlood flood-opacity="0" result="BackgroundImageFix"/>
<feColorMatrix in="SourceAlpha" type="matrix" values="0 0 0 0 0 0 0 0 0 0 0 0 0 0 0 0 0 0 127 0" result="hardAlpha"/>
<feMorphology radius="7.02035" operator="erode" in="SourceAlpha" result="effect1_dropShadow_104_126"/>
<feOffset dy="10.5305"/>
<feGaussianBlur stdDeviation="11.7006"/>
<feColorMatrix type="matrix" values="0 0 0 0 0.243137 0 0 0 0 0.741176 0 0 0 0 1 0 0 0 0.45 0"/>
<feBlend mode="normal" in2="BackgroundImageFix" result="effect1_dropShadow_104_126"/>
<feBlend mode="normal" in="SourceGraphic" in2="effect1_dropShadow_104_126" result="shape"/>
</filter>
<filter id="filter6_d_104_126" x="250.922" y="296.775" width="37.2694" height="37.2694" filterUnits="userSpaceOnUse" color-interpolation-filters="sRGB">
<feFlood flood-opacity="0" result="BackgroundImageFix"/>
<feColorMatrix in="SourceAlpha" type="matrix" values="0 0 0 0 0 0 0 0 0 0 0 0 0 0 0 0 0 0 127 0" result="hardAlpha"/>
<feMorphology radius="7.02035" operator="erode" in="SourceAlpha" result="effect1_dropShadow_104_126"/>
<feOffset dy="10.5305"/>
<feGaussianBlur stdDeviation="11.7006"/>
<feColorMatrix type="matrix" values="0 0 0 0 0.243137 0 0 0 0 0.741176 0 0 0 0 1 0 0 0 0.45 0"/>
<feBlend mode="normal" in2="BackgroundImageFix" result="effect1_dropShadow_104_126"/>
<feBlend mode="normal" in="SourceGraphic" in2="effect1_dropShadow_104_126" result="shape"/>
</filter>
<linearGradient id="paint0_linear_104_126" x1="196.179" y1="118.305" x2="204.324" y2="119.066" gradientUnits="userSpaceOnUse">
<stop stop-color="#FCC822"/>
<stop offset="1" stop-color="#FFDD72"/>
</linearGradient>
<linearGradient id="paint1_linear_104_126" x1="399.532" y1="214.973" x2="407.677" y2="215.734" gradientUnits="userSpaceOnUse">
<stop stop-color="#FCC822"/>
<stop offset="1" stop-color="#FFDD72"/>
</linearGradient>
<linearGradient id="paint2_linear_104_126" x1="319.393" y1="291.104" x2="327.538" y2="291.866" gradientUnits="userSpaceOnUse">
<stop stop-color="#FCC822"/>
<stop offset="1" stop-color="#FFDD72"/>
</linearGradient>
<linearGradient id="paint3_linear_104_126" x1="176.645" y1="285.094" x2="193.477" y2="286.668" gradientUnits="userSpaceOnUse">
<stop stop-color="#FCC822"/>
<stop offset="1" stop-color="#FFDD72"/>
</linearGradient>
<linearGradient id="paint4_linear_104_126" x1="314.885" y1="262.054" x2="324.659" y2="262.968" gradientUnits="userSpaceOnUse">
<stop stop-color="#FCC822"/>
<stop offset="1" stop-color="#FFDD72"/>
</linearGradient>
<linearGradient id="paint5_linear_104_126" x1="73.4664" y1="261.553" x2="83.2398" y2="262.467" gradientUnits="userSpaceOnUse">
<stop stop-color="#FCC822"/>
<stop offset="1" stop-color="#FFDD72"/>
</linearGradient>
<linearGradient id="paint6_linear_104_126" x1="267.303" y1="302.625" x2="272.189" y2="303.082" gradientUnits="userSpaceOnUse">
<stop stop-color="#FDC68A"/>
<stop offset="1" stop-color="#FCC822"/>
</linearGradient>
<linearGradient id="paint7_linear_104_126" x1="276.318" y1="184.419" x2="276.318" y2="190.429" gradientUnits="userSpaceOnUse">
<stop stop-color="#FCC822"/>
<stop offset="1" stop-color="#FFDD72"/>
</linearGradient>
<linearGradient id="paint8_linear_104_126" x1="291.344" y1="203.293" x2="291.344" y2="209.303" gradientUnits="userSpaceOnUse">
<stop stop-color="#FCC822"/>
<stop offset="1" stop-color="#FFDD72"/>
</linearGradient>
<linearGradient id="paint9_linear_104_126" x1="300.861" y1="204.796" x2="300.861" y2="207.801" gradientUnits="userSpaceOnUse">
<stop stop-color="#FCC822"/>
<stop offset="1" stop-color="#FFDD72"/>
</linearGradient>
<linearGradient id="paint10_linear_104_126" x1="298.073" y1="211.525" x2="298.073" y2="214.53" gradientUnits="userSpaceOnUse">
<stop stop-color="#FCC822"/>
<stop offset="1" stop-color="#FFDD72"/>
</linearGradient>
<linearGradient id="paint11_linear_104_126" x1="291.183" y1="214.313" x2="291.183" y2="217.318" gradientUnits="userSpaceOnUse">
<stop stop-color="#FCC822"/>
<stop offset="1" stop-color="#FFDD72"/>
</linearGradient>
<linearGradient id="paint12_linear_104_126" x1="284.454" y1="211.525" x2="284.454" y2="214.53" gradientUnits="userSpaceOnUse">
<stop stop-color="#FCC822"/>
<stop offset="1" stop-color="#FFDD72"/>
</linearGradient>
<linearGradient id="paint13_linear_104_126" x1="281.828" y1="204.796" x2="281.828" y2="207.801" gradientUnits="userSpaceOnUse">
<stop stop-color="#FCC822"/>
<stop offset="1" stop-color="#FFDD72"/>
</linearGradient>
<linearGradient id="paint14_linear_104_126" x1="284.615" y1="198.067" x2="284.615" y2="201.072" gradientUnits="userSpaceOnUse">
<stop stop-color="#FCC822"/>
<stop offset="1" stop-color="#FFDD72"/>
</linearGradient>
<linearGradient id="paint15_linear_104_126" x1="291.183" y1="195.279" x2="291.183" y2="198.285" gradientUnits="userSpaceOnUse">
<stop stop-color="#FCC822"/>
<stop offset="1" stop-color="#FFDD72"/>
</linearGradient>
<linearGradient id="paint16_linear_104_126" x1="297.912" y1="198.067" x2="297.912" y2="201.072" gradientUnits="userSpaceOnUse">
<stop stop-color="#FCC822"/>
<stop offset="1" stop-color="#FFDD72"/>
</linearGradient>
</defs>
</svg>
